<svg id="Capa_1" enable-background="new 0 0 512 512" height="512" viewBox="0 0 512 512" width="512" xmlns="http://www.w3.org/2000/svg"><path d="m331 390h-75-82.969l-21.539 30c1.245 15.676 10.135 29.579 24.38 36.709l26.836 13.418c5.112 2.549 8.291 7.69 8.291 13.418v13.455c0 8.291 6.709 15 15 15h30 30c8.291 0 15-6.709 15-15v-13.455c0-5.728 3.179-10.869 8.291-13.418l26.836-13.418c14.246-7.13 23.135-21.033 24.38-36.709z" fill="#596c76"/><path d="m301 497v-13.455c0-5.728 3.179-10.869 8.291-13.418l26.836-13.418c14.246-7.13 23.135-21.033 24.38-36.709l-29.507-30h-75v122h30c8.291 0 15-6.709 15-15z" fill="#465a61"/><path d="m361 345v71.4c0 1.199-.3 2.401-.601 3.6h-104.399v-75z"/><path d="m256 345h-105v71.4c0 1.199.3 2.401.601 3.6h104.399 104.399c.3-1.199.601-2.401.601-3.6v-71.4z" fill="#ffda2d"/><path d="m361 416.4v-71.4h-105v75h104.399c.301-1.199.601-2.401.601-3.6z" fill="#fdbf00"/><path d="m361 30c0 16.5-13.5 30-30 30l-30 30h-90l-30-30c-16.5 0-30-13.5-30-30s13.5-30 30-30h150c16.5 0 30 13.5 30 30z" fill="#d9f2ff"/><path d="m301 90h-45v-90h75c16.5 0 30 13.5 30 30s-13.5 30-30 30z" fill="#cdf"/><path d="m391 90c0 16.5-13.5 30-30 30l-30 30h-150l-30-30c-16.5 0-30-13.5-30-30s13.5-30 30-30h210c16.5 0 30 13.5 30 30z" fill="#e6ffff"/><path d="m331 150h-75v-90h105c16.5 0 30 13.5 30 30s-13.5 30-30 30z" fill="#d9f2ff"/><path d="m391 150c0 16.5-13.5 30-30 30l-30 30h-150l-30-30c-16.5 0-30-13.5-30-30s13.5-30 30-30h210c16.5 0 30 13.5 30 30z" fill="#d9f2ff"/><path d="m331 210h-75v-90h105c16.5 0 30 13.5 30 30s-13.5 30-30 30z" fill="#cdf"/><path d="m286 210h60v150h-60z" fill="#cdf"/><path d="m361 180h-210c-16.5 0-30 13.5-30 30s13.5 30 30 30h15v105h60v-105h135c16.5 0 30-13.5 30-30s-13.5-30-30-30z" fill="#e6ffff"/><path d="m391 210c0 16.5-13.5 30-30 30h-105v-60h105c16.5 0 30 13.5 30 30z" fill="#d9f2ff"/><path d="m391 345c0 8.401-6.599 15-15 15h-240c-8.401 0-15-6.599-15-15s6.599-15 15-15h240c8.401 0 15 6.599 15 15z" fill="#596c76"/><path d="m391 345c0 8.401-6.599 15-15 15h-120v-30h120c8.401 0 15 6.599 15 15z"/><path d="m391 345c0 8.401-6.599 15-15 15h-120v-30h120c8.401 0 15 6.599 15 15z" fill="#465a61"/></svg>