<svg id="Capa_1" enable-background="new 0 0 511.998 511.998" height="512" viewBox="0 0 511.998 511.998" width="512" xmlns="http://www.w3.org/2000/svg"><g><g><path d="m247.567 406.713v-52.641c5.446-58.087 78.054-79.87 78.054-79.87h-110.728-110.729s72.609 21.783 78.054 79.87v52.641s1.815 72.609-78.054 105.283h110.728 110.728c-79.868-32.674-78.053-105.283-78.053-105.283z" fill="#f3f0f3"/></g><g><path d="m325.626 511.998h-25.933c-77.529-32.665-73.909-105.288-73.909-105.288v-52.634c.529-59.386 68.992-79.874 68.992-79.874h30.85s-72.612 21.784-78.058 79.874v52.634s-1.816 72.612 78.058 105.288z" fill="#e2dee2"/></g><g><path d="m341.682 7.359c-.896-4.286-4.676-7.357-9.054-7.357h-117.735-117.734c-4.379 0-8.158 3.07-9.054 7.357l-54.219 259.228c-1.202 5.746 3.184 11.144 9.054 11.144h171.952 171.952c5.871 0 10.256-5.398 9.054-11.144z" fill="#fea613"/></g><g><path d="m386.849 277.732h-21.784c5.871 0 10.249-5.394 9.056-11.141l-54.221-259.236c-.903-4.285-4.678-7.355-9.056-7.355h21.784c4.377 0 8.153 3.07 9.056 7.355l54.221 259.236c1.192 5.747-3.185 11.141-9.056 11.141z" fill="#fe9901"/></g><g><path d="m182.219 354.072h65.348v52.641h-65.348z" fill="#c4e2ff"/></g><g><path d="m225.784 354.077h21.784v52.634h-21.784z" fill="#95d2fc"/></g><g fill="#cbc4cc"><ellipse cx="433.2" cy="76.774" rx="10.171" ry="10.181"/><path d="m448.399 35.305c-4.579-2.328-9.728-3.558-14.891-3.558-5.478 0-10.907 1.377-15.697 3.982-3.774 2.053-5.17 6.777-3.118 10.551 1.411 2.594 4.082 4.065 6.842 4.065 1.255 0 2.529-.305 3.71-.947 2.552-1.388 5.331-2.091 8.263-2.091 2.763 0 5.4.629 7.839 1.868 3.829 1.947 8.514.422 10.461-3.409 1.946-3.83.421-8.513-3.409-10.461z"/><path d="m474.563 11.414c-12.316-7.465-26.472-11.412-40.939-11.412-14.466 0-28.621 3.946-40.936 11.411-3.674 2.227-4.847 7.012-2.621 10.686 2.228 3.675 7.013 4.848 10.686 2.62 9.882-5.99 21.249-9.157 32.87-9.157 11.622 0 22.989 3.167 32.873 9.158 1.26.764 2.652 1.128 4.026 1.128 2.63 0 5.197-1.334 6.66-3.748 2.228-3.675 1.055-8.459-2.619-10.686z"/></g></g></svg>