<svg id="Capa_1" enable-background="new 0 0 511.505 511.505" height="512" viewBox="0 0 511.505 511.505" width="512" xmlns="http://www.w3.org/2000/svg" xmlns:xlink="http://www.w3.org/1999/xlink"><linearGradient id="lg1"><stop offset="0" stop-color="#fd5900"/><stop offset="1" stop-color="#ffde00"/></linearGradient><linearGradient id="SVGID_1_" gradientUnits="userSpaceOnUse" x1="193.457" x2="193.457" xlink:href="#lg1" y1="449.505" y2="53.525"/><linearGradient id="lg2"><stop offset="0" stop-color="#ffe59a"/><stop offset="1" stop-color="#ffffd5"/></linearGradient><linearGradient id="SVGID_2_" gradientUnits="userSpaceOnUse" x1="284.887" x2="284.887" xlink:href="#lg2" y1="104.505" y2="0"/><linearGradient id="SVGID_3_" gradientUnits="userSpaceOnUse" x1="354.475" x2="354.475" xlink:href="#lg1" y1="449.505" y2="12.641"/><linearGradient id="SVGID_4_" gradientUnits="userSpaceOnUse" x1="234.747" x2="234.747" xlink:href="#lg2" y1="511.505" y2="209.505"/><g><g><path d="m267.706 56.488c-6.592-4.907-15.996-3.604-21.006 3.062l-122.783 164.78c-4.951 6.65-3.574 16.04 3.076 20.991 2.695 2.007 5.83 2.974 8.965 2.974 4.57 0 9.082-2.08 12.041-6.035l122.783-164.78c4.952-6.651 3.575-16.041-3.076-20.992zm-127.236 216.284c-4.717-6.797-14.121-8.452-20.859-3.75-6.826 4.731-8.496 14.092-3.75 20.889l106.582 153.164c2.9 4.189 7.588 6.431 12.305 6.431 2.959 0 5.947-.864 8.555-2.681 6.826-4.731 8.496-14.092 3.75-20.889z" fill="url(#SVGID_1_)"/></g></g><g><g><path d="m286.339 104.505c-3.252 0-6.445-1.055-9.082-3.062l-27.598-21.006c-9.609-7.441-15.762-17.974-17.402-29.751-1.641-11.938 1.523-23.789 8.936-33.369 13.564-18.633 43.623-23.496 63.076-8.335l27.773 21.196c3.867 2.974 6.064 7.632 5.889 12.524-.205 4.878-2.754 9.36-6.855 11.997-7.061 4.556-13.213 10.312-18.311 17.109-5.303 7.061-9.434 14.707-12.305 22.72-1.582 4.512-5.244 7.983-9.844 9.36-1.406.412-2.841.617-4.277.617z" fill="url(#SVGID_2_)"/></g><g id="Desk_Lamp_1_"><g><g><path d="m441.612 43.377c-.527-3.94-2.607-7.5-5.771-9.902-34.775-26.396-85.869-27.7-121.055-3.97-10.02 6.475-18.779 14.648-26.045 24.302-7.119 9.492-12.656 19.819-16.729 31.216-13.271 42.407 1.465 88.916 36.738 115.723 2.637 1.992 5.83 3.062 9.082 3.062.674 0 1.348-.044 2.021-.132 3.955-.542 7.529-2.622 9.932-5.801l108.927-143.394c2.402-3.164 3.457-7.163 2.9-11.104zm-146.865 346.128c-8.291 0-15 6.709-15 15v30c0 8.291 6.709 15 15 15s15-6.709 15-15v-30c0-8.291-6.709-15-15-15z" fill="url(#SVGID_3_)"/></g></g></g><g><g><path d="m114.747 299.505c24.814 0 45-20.186 45-45s-20.186-45-45-45-45 20.186-45 45 20.186 45 45 45zm283.418 190.291-30-62c-2.549-5.083-7.734-8.291-13.418-8.291h-240c-5.684 0-10.869 3.208-13.418 8.291l-30 62c-2.314 4.644-2.08 10.166.645 14.59 2.754 4.424 7.588 7.119 12.773 7.119h300c5.186 0 10.02-2.695 12.773-7.119 2.725-4.424 2.96-9.946.645-14.59z" fill="url(#SVGID_4_)"/></g></g></g></svg>