<svg height="500pt" viewBox="0 -9 500.71482 500" width="500pt" xmlns="http://www.w3.org/2000/svg"><path d="m282.359375 16.90625c0-6.929688-14.273437-12.542969-31.878906-12.542969-16.832031 0-30.582031 5.132813-31.765625 11.636719-.289063.765625-.425782 1.628906-.316406 2.53125l5.804687 48.742188c.0625.523437.207031 1.011718.398437 1.460937.035157-6.910156 11.550782-12.511719 25.753907-12.511719 14.207031 0 25.722656 5.597656 25.757812 12.511719.195313-.449219.335938-.9375.398438-1.460937l5.808593-48.742188c.050782-.429688.035157-.847656-.007812-1.253906.007812-.125.046875-.246094.046875-.371094zm0 0" fill="#f9a7a7"/><path d="m276.117188 72.734375c-.265626 0-.53125-.023437-.796876-.078125-1.855468-.375-3.195312-2.003906-3.203124-3.898438-.023438-3.480468-8.507813-8.535156-21.757813-8.535156-13.253906 0-21.734375 5.054688-21.757813 8.535156-.007812 1.894532-1.347656 3.523438-3.203124 3.898438-1.847657.386719-3.722657-.601562-4.472657-2.34375-.355469-.832031-.589843-1.695312-.695312-2.566406l-5.804688-48.742188c-.164062-1.375-.019531-2.746094.425781-4.078125 2.210938-10.007812 19.925782-14.570312 35.628907-14.570312 17.828125 0 35.875 5.683593 35.875 16.546875 0 .160156-.007813.320312-.023438.480468.035157.566407.019531 1.101563-.042969 1.617188l-5.804687 48.742188c-.105469.875-.339844 1.738281-.695313 2.570312-.636718 1.492188-2.101562 2.421875-3.671874 2.421875zm-25.636719-64.375c-17.273438 0-27.296875 5.441406-27.828125 8.355469-.042969.234375-.105469.464844-.191406.691406-.082032.222656-.117188.441406-.089844.652344l4.78125 40.121094c5.367187-3.683594 13.625-5.957032 23.207031-5.957032s17.839844 2.273438 23.207031 5.957032l4.78125-40.125c.003906-.039063.007813-.140626-.015625-.359376-.023437-.222656-.027343-.449218-.011719-.667968.003907-.070313.015626-.179688.027344-.289063-.363281-3.039062-10.878906-8.378906-27.867187-8.378906zm0 0" fill="#3762cc"/><path d="m276.117188 68.765625c0-6.925781-11.53125-12.542969-25.757813-12.542969s-25.757813 5.617188-25.757813 12.542969c0 6.929687 11.53125 12.546875 25.757813 12.546875s25.757813-5.617188 25.757813-12.546875zm0 0" fill="#f9cfcf"/><path d="m250.359375 85.3125c-16.964844 0-29.761719-7.113281-29.761719-16.546875 0-9.429687 12.792969-16.542969 29.761719-16.542969s29.761719 7.113282 29.761719 16.542969c0 9.433594-12.796875 16.546875-29.761719 16.546875zm0-25.089844c-13.285156 0-21.761719 5.0625-21.761719 8.542969 0 3.484375 8.476563 8.546875 21.761719 8.546875s21.761719-5.0625 21.761719-8.546875c0-3.480469-8.476563-8.542969-21.761719-8.542969zm0 0" fill="#3762cc"/><path d="m250.359375 243.1875c-35.070313 0-63.5 13.261719-63.5 29.617188v65.769531c0-16.355469 28.429687-29.617188 63.5-29.617188s63.5 13.261719 63.5 29.617188v-65.769531c0-16.355469-28.429687-29.617188-63.5-29.617188zm0 0" fill="#f9cfcf"/><path d="m313.859375 338.574219c0-16.355469-28.429687-29.617188-63.5-29.617188s-63.5 13.261719-63.5 29.617188 28.429687 29.613281 63.5 29.613281 63.5-13.257812 63.5-29.613281zm0 0" fill="#f9a7a7"/><path d="m250.359375 372.1875c-37.851563 0-67.5-14.765625-67.5-33.613281v-65.769531c0-18.847657 29.648437-33.617188 67.5-33.617188s67.5 14.769531 67.5 33.617188v65.769531c0 18.847656-29.648437 33.613281-67.5 33.613281zm0-125c-35.59375 0-59.5 13.246094-59.5 25.617188v65.769531c0 12.371093 23.90625 25.613281 59.5 25.613281s59.5-13.242188 59.5-25.613281v-65.769531c0-12.371094-23.90625-25.617188-59.5-25.617188zm0 0" fill="#3762cc"/><path d="m490.878906 156.664062-18.582031-24.136718c-8.710937-11.3125-23.96875-15.265625-34.074219-8.828125-11.816406 7.523437-22.949218 15.90625-33.324218 25.097656l-138.039063 122.273437 1.414063 1.835938 39.6875 16.628906 181.558593-115.609375c5.429688-3.457031 6.039063-11.183593 1.359375-17.261719zm0 0" fill="#4671c6"/><path d="m238.152344 274.15625 1.375-1.546875-189.363282-139.449219c-5.152343-3.792968-13.488281-2.195312-18.621093 3.570313l-20.390625 22.894531c-9.558594 10.730469-9.53125 25.160156.058594 32.21875 11.207031 8.253906 23.140624 15.675781 35.71875 22.214844l149.355468 77.636718zm0 0" fill="#4671c6"/><path d="m307.960938 293.535156c-.527344 0-1.050782-.101562-1.546876-.308594l-39.683593-16.628906c-.640625-.265625-1.203125-.695312-1.628907-1.25l-1.414062-1.835937c-1.28125-1.664063-1.054688-4.039063.519531-5.433594l138.039063-122.273437c10.5-9.300782 21.878906-17.875 33.828125-25.480469 11.792969-7.507813 29.464843-3.125 39.390625 9.765625l18.585937 24.132812c3.191407 4.148438 4.554688 9.179688 3.746094 13.804688-.6875 3.898437-2.863281 7.191406-6.128906 9.273437l-181.558594 115.609375c-.652344.414063-1.398437.625-2.148437.625zm-34.636719-22.847656 34.25 14.351562 179.796875-114.488281c1.726562-1.097656 2.335937-2.734375 2.542968-3.910156.421876-2.414063-.378906-5.164063-2.207031-7.539063l-18.585937-24.132812c-7.460938-9.691406-20.363282-13.238281-28.753906-7.894531-11.59375 7.378906-22.636719 15.695312-32.820313 24.71875zm0 0" fill="#3762cc"/><path d="m196.285156 295.695312c-.636718 0-1.269531-.152343-1.847656-.453124l-149.355469-77.636719c-12.714843-6.609375-24.910156-14.195313-36.242187-22.539063-4.957032-3.648437-8.046875-9.128906-8.707032-15.421875-.8125-7.765625 2.113282-16.035156 8.03125-22.679687l20.390626-22.898438c6.566406-7.382812 17.101562-9.195312 23.980468-4.128906l189.363282 139.449219c.90625.667969 1.488281 1.683593 1.605468 2.804687.121094 1.121094-.242187 2.234375-.988281 3.074219l-1.375 1.546875c-.398437.449219-.890625.800781-1.445313 1.03125l-41.867187 17.542969c-.496094.207031-1.019531.308593-1.542969.308593zm-152.757812-160.601562c-3.070313 0-6.542969 1.539062-8.996094 4.292969l-20.390625 22.898437c-4.421875 4.96875-6.628906 10.992188-6.046875 16.527344.425781 4.089844 2.324219 7.480469 5.488281 9.8125 11.003907 8.101562 22.84375 15.464844 35.191407 21.882812l147.695312 76.777344 35.847656-15.023437-184.523437-135.882813c-1.183594-.871094-2.667969-1.285156-4.265625-1.285156zm0 0" fill="#3762cc"/><path d="m186.859375 338.574219v-27.328125l-139.929687 72.738281c-12.578126 6.539063-24.507813 13.960937-35.71875 22.214844-9.589844 7.058593-9.617188 21.484375-.058594 32.21875l20.390625 22.898437c5.132812 5.761719 13.46875 7.363282 18.621093 3.570313l148.332032-109.234375c-7.320313-4.828125-11.636719-10.71875-11.636719-17.078125zm0 0" fill="#4671c6"/><path d="m43.480469 470.972656c-5.292969 0-10.863281-2.433594-14.925781-6.996094l-20.390626-22.898437c-5.917968-6.644531-8.84375-14.910156-8.03125-22.679687.660157-6.296876 3.75-11.769532 8.707032-15.417969 11.335937-8.351563 23.53125-15.933594 36.242187-22.542969l139.929688-72.738281c1.242187-.644531 2.726562-.597657 3.921875.128906 1.199218.726563 1.925781 2.023437 1.925781 3.417969v27.328125c0 5.992187 5.351563 10.777343 9.839844 13.738281 1.089843.722656 1.761719 1.929688 1.792969 3.238281.035156 1.304688-.570313 2.546875-1.625 3.324219l-148.332032 109.230469c-2.625 1.9375-5.789062 2.867187-9.054687 2.867187zm139.378906-153.136718-134.085937 69.699218c-12.347657 6.417969-24.1875 13.78125-35.191407 21.882813-3.164062 2.332031-5.0625 5.722656-5.492187 9.8125-.578125 5.535156 1.628906 11.5625 6.050781 16.527343l20.386719 22.898438c3.726562 4.183594 9.796875 5.5625 13.265625 3.011719l144.007812-106.050781c-5.871093-5.078126-8.945312-10.894532-8.945312-17.042969v-20.738281zm0 0" fill="#3762cc"/><path d="m492.210938 424.121094-178.351563-113.566406v28.019531c0 6.410156-4.382813 12.339843-11.808594 17.1875l105.535157 93.484375c10.378906 9.191406 21.511718 17.578125 33.324218 25.101562 10.109375 6.4375 25.363282 2.480469 34.074219-8.832031l18.585937-24.132813c4.675782-6.078124 4.070313-13.804687-1.359374-17.261718zm0 0" fill="#4671c6"/><path d="m451.929688 481.394531c-4.707032 0-9.257813-1.183593-13.167969-3.671875-11.949219-7.609375-23.332031-16.183594-33.828125-25.480468l-105.535156-93.484376c-.933594-.828124-1.425782-2.042968-1.335938-3.289062.089844-1.242188.757812-2.375 1.800781-3.054688 4.558594-2.976562 9.992188-7.792968 9.992188-13.839843v-28.019531c0-1.460938.796875-2.804688 2.078125-3.507813 1.277344-.703125 2.839844-.652344 4.070312.132813l178.355469 113.566406c3.265625 2.078125 5.445313 5.375 6.125 9.273437.8125 4.625-.550781 9.652344-3.746094 13.800781l-18.582031 24.136719c-6.640625 8.621094-16.738281 13.433594-26.226562 13.4375zm-143.523438-125.347656 101.832031 90.207031c10.183594 9.015625 21.222657 17.332032 32.820313 24.71875 8.386718 5.34375 21.289062 1.800782 28.757812-7.894531l18.582032-24.136719c1.828124-2.375 2.628906-5.121094 2.207031-7.539062-.207031-1.175782-.8125-2.808594-2.542969-3.910156l-172.203125-109.652344v20.734375c0 6.324219-3.25 12.296875-9.453125 17.472656zm0 0" fill="#3762cc"/><path d="m250.359375 447.046875c57.046875 0 110.777344-11.734375 151.285156-33.039063 41.734375-21.949218 64.714844-51.570312 64.714844-83.410156 0-3.3125-2.6875-6-6-6s-6 2.6875-6 6c0 27.164063-20.707031 53.015625-58.300781 72.789063-38.816406 20.417969-90.558594 31.660156-145.699219 31.660156-3.3125 0-6 2.6875-6 6 0 3.316406 2.6875 6 6 6zm0 0" fill="#e0ebfc"/><path d="m250.359375 414.546875c43.027344 0 83.566406-8.863281 114.160156-24.953125 31.816407-16.730469 49.339844-39.421875 49.339844-63.882812 0-3.316407-2.6875-6-6-6s-6 2.683593-6 6c0 19.789062-15.242187 38.703124-42.925781 53.265624-28.898438 15.199219-67.460938 23.574219-108.574219 23.574219-3.3125 0-6 2.683594-6 6 0 3.3125 2.6875 5.996094 6 5.996094zm0 0" fill="#a4c9ff"/><path d="m250.359375 243.1875c5.707031 0 11.234375.359375 16.5 1.019531v-167.871093c0-4.359376-3.535156-7.898438-7.898437-7.898438h-17.203126c-4.363281 0-7.898437 3.539062-7.898437 7.898438v167.871093c5.265625-.660156 10.792969-1.019531 16.5-1.019531zm0 0" fill="#6bdddd"/><path d="m266.859375 248.207031c-.167969 0-.332031-.011719-.496094-.035156-10.4375-1.304687-21.570312-1.304687-32.007812 0-1.125.148437-2.285157-.207031-3.140625-.96875-.863282-.757813-1.355469-1.851563-1.355469-3v-167.867187c0-6.558594 5.339844-11.898438 11.898437-11.898438h17.203126c6.558593 0 11.898437 5.339844 11.898437 11.898438v167.871093c0 1.144531-.492187 2.238281-1.355469 3-.734375.644531-1.675781 1-2.644531 1zm-16.5-9.019531c4.195313 0 8.382813.191406 12.5.5625v-163.414062c0-2.148438-1.75-3.898438-3.898437-3.898438h-17.203126c-2.152343 0-3.898437 1.75-3.898437 3.898438v163.414062c4.117187-.371094 8.304687-.5625 12.5-.5625zm0 0" fill="#3762cc"/><path d="m40.359375 297.5c3.3125 0 6-2.6875 6-6 0-27.167969 20.707031-53.015625 58.300781-72.789062 38.816406-20.417969 90.558594-31.660157 145.699219-31.660157 3.3125 0 6-2.6875 6-6 0-3.316406-2.6875-6-6-6-57.046875 0-110.777344 11.734375-151.285156 33.039063-41.734375 21.949218-64.714844 51.570312-64.714844 83.410156 0 3.3125 2.6875 6 6 6zm0 0" fill="#e0ebfc"/><path d="m92.859375 302.386719c3.3125 0 6-2.683594 6-6 0-19.789063 15.242187-38.707031 42.925781-53.265625 28.898438-15.203125 67.460938-23.574219 108.574219-23.574219 3.3125 0 6-2.683594 6-6 0-3.3125-2.6875-6-6-6-43.027344 0-83.566406 8.863281-114.160156 24.953125-31.816407 16.734375-49.339844 39.421875-49.339844 63.886719 0 3.3125 2.6875 6 6 6zm0 0" fill="#a4c9ff"/></svg>