<svg id="Capa_1" enable-background="new 0 0 512 512" height="512" viewBox="0 0 512 512" width="512" xmlns="http://www.w3.org/2000/svg"><g><path d="m61 451h30v45h-30z" fill="#405580"/><path d="m421 451h30v45h-30z" fill="#283d66"/><path d="m241 271h30v60h-30z" fill="#405580"/><path d="m256 271h15v60h-15z" fill="#283d66"/><path d="m0 316v150h512v-150z" fill="#b37d7d"/><g fill="#995c5c"><path d="m256 316h256v150h-256z"/><path d="m151 346h210v30h-210z"/><path d="m151 406h210v30h-210z"/><path d="m31 346h90v90h-90z"/></g><path d="m391 346h90v90h-90z" fill="#804040"/><path d="m256 346h105v30h-105z" fill="#804040"/><path d="m256 406h105v30h-105z" fill="#804040"/><path d="m31 16v270h450v-270z" fill="#405580"/><path d="m256 16h225v270h-225z" fill="#283d66"/><path d="m61 46h390v210h-390z" fill="#9cf"/><path d="m256 46h195v210h-195z" fill="#80aaff"/><path d="m256 106.599-45-26.999v142.8l45-27.001 74.099-44.399z" fill="#e6f2ff"/><path d="m330.099 151-74.099 44.399v-88.8z" fill="#cce6ff"/></g></svg>