<svg height="512" viewBox="0 0 46 58" width="512" xmlns="http://www.w3.org/2000/svg"><g id="Page-1" fill="none" fill-rule="evenodd"><g id="054---Washing-Machine" fill-rule="nonzero"><path id="Shape" d="m33 0v14h-33v-11c0-1.65685425 1.34314575-3 3-3z" fill="#95a5a5"/><path id="Shape" d="m46 3v11h-15v-14h12c1.6568542 0 3 1.34314575 3 3z" fill="#7f8c8d"/><path id="Shape" d="m46 12v43c0 1.6568542-1.3431458 3-3 3h-40c-1.65685425 0-3-1.3431458-3-3v-43z" fill="#547580"/><path id="Shape" d="m33.79 21.87c-1.74.9-3.67 1.95-5.67 3.13-.41.24-.83.49-1.25.74-1.17.71-2.36 1.46-3.54 2.25-2.5538508 1.6812242-5.0018114 3.5180296-7.33 5.5-1.4273786 1.2100177-2.7830111 2.5022092-4.06 3.87-.3883582-.2455555-.8406495-.3708054-1.3-.36-2.08 0-2.06 2.03-4.17 1.98-1.70787899-7.1035032 1.31387906-14.5038562 7.5057273-18.3816938 6.1918482-3.8778376 14.1689483-3.3658618 19.8142727 1.2716938z" fill="#35495e"/><path id="Shape" d="m40 35c.0025949 1.3472587-.1551816 2.6900374-.47 4-2.13.04-2.12-2-4.19-2s-2.06 2-4.12 2-2.05-2-4.11-2-2.06 2-4.12 2c-1.26 0-1.75-.74-2.4-1.33-.4652014-.4372239-1.0816246-.6773422-1.72-.67-2.06 0-2.06 2-4.12 2-1.49 0-1.9-1.06-2.81-1.64 6.21-6.67 15.3-12.1 21.85-15.49.7004678.5721175 1.3526686 1.2009059 1.95 1.88 2.7499647 3.1016649 4.2658224 7.1048103 4.26 11.25z" fill="#2c3e50"/><circle id="Oval" cx="7" cy="6" fill="#ecf0f1" r="2"/><path id="Shape" d="m42 7h-7c-.5522847 0-1-.44771525-1-1s.4477153-1 1-1h7c.5522847 0 1 .44771525 1 1s-.4477153 1-1 1z" fill="#56595e"/><circle id="Oval" cx="13" cy="6" fill="#f3d55b" r="1"/><circle id="Oval" cx="17" cy="6" fill="#f3d55b" r="1"/><circle id="Oval" cx="21" cy="6" fill="#71c285" r="1"/><path id="Shape" d="m33.75 28.87-1.6 2.42c-.1533026.2302414-.3951252.3866993-.6679711.4321737-.2728458.0454743-.5523401-.0240975-.7720289-.1921737l-.71-.53v10l-14-.01v-7.5c2.3281886-1.9819704 4.7761492-3.8187758 7.33-5.5 1.5221665.0197253 2.911665-.8634305 3.54-2.25.42-.25.84-.5 1.25-.74h1.56c.2090965-.0030175.4132171.0638496.58.19l3.24 2.31c.4398734.3140659.5505936.9208124.25 1.37z" fill="#df4d60"/><path id="Shape" d="m23 28c.11 0 .22 0 .33-.01-2.5538508 1.6812242-5.0018114 3.5180296-7.33 5.5v-2.49l-.71.53c-.2196888.1680762-.4991831.237648-.7720289.1921737-.2728459-.0454744-.5146685-.2019323-.6679711-.4321737l-1.6-2.42c-.3005936-.4491876-.1898734-1.0559341.25-1.37l3.24-2.31c.1667829-.1261504.3709035-.1930175.58-.19h1.77c.4530704-.0135056.8639452.2644391 1.02.69.676664 1.5160657 2.2349922 2.4414482 3.89 2.31z" fill="#ff5364"/><path id="Shape" d="m28.12 25c-.41.24-.83.49-1.25.74.01-.02.01-.03.02-.05.1560548-.4255609.5669296-.7035056 1.02-.69z" fill="#ff5364"/><path id="Shape" d="m11.94 37.36c-1.5419928 1.6418607-2.91552545 3.4341533-4.1 5.35-.60110972-1.1854151-1.06092563-2.4373226-1.37-3.73 2.11.05 2.09-1.98 4.17-1.98.4593505-.0108054.9116418.1144445 1.3.36z" fill="#3b97d3"/><path id="Shape" d="m39.53 39c-1.4620257 6.0413265-6.1046284 10.8031082-12.106965 12.4177597-6.0023367 1.6146515-12.4073734-.1752731-16.703035-4.6677597-1.15489655-1.1965086-2.12550501-2.5580566-2.88-4.04 1.18447455-1.9158467 2.5580072-3.7081393 4.1-5.35.91.58 1.32 1.64 2.81 1.64 2.06 0 2.06-2 4.12-2 .6383754-.0073422 1.2547986.2327761 1.72.67.65.59 1.14 1.33 2.4 1.33 2.06 0 2.06-2 4.12-2s2.06 2 4.11 2 2.06-2 4.12-2 2.06 2.04 4.19 2z" fill="#2980ba"/><path id="Shape" d="m23 53c-9.9411255 0-18-8.0588745-18-18s8.0588745-18 18-18 18 8.0588745 18 18c-.0115721 9.9363282-8.0636718 17.9884279-18 18zm0-34c-8.836556 0-16 7.163444-16 16s7.163444 16 16 16 16-7.163444 16-16c-.0104696-8.8322157-7.1677843-15.9895304-16-16z" fill="#bdc3c7"/></g></g></svg>