<svg id="Flat" height="512" viewBox="0 0 512 512" width="512" xmlns="http://www.w3.org/2000/svg"><rect fill="#414649" height="464" rx="96" width="464" x="24" y="24"/><path d="m112 64h288a48 48 0 0 1 48 48v208a0 0 0 0 1 0 0h-384a0 0 0 0 1 0 0v-208a48 48 0 0 1 48-48z" fill="#ced8dc"/><path d="m399.333 400a17.138 17.138 0 0 0 -4.749.739 28.075 28.075 0 0 0 1.416-8.739c0-13.255-8.954-24-20-24s-20 10.745-20 24a28.075 28.075 0 0 0 1.416 8.739 17.138 17.138 0 0 0 -4.749-.739c-9.2 0-16.667 7.163-16.667 16s7.462 16 16.667 16h46.666c9.2 0 16.667-7.164 16.667-16s-7.462-16-16.667-16z" fill="#7e8589"/><path d="m160 368a0 0 0 0 1 0 0 64 64 0 0 1 -64 64 0 0 0 0 1 0 0 64 64 0 0 1 64-64z" fill="#7e8589"/><path d="m200 272h-64a8 8 0 0 1 -8-8v-72a8 8 0 0 1 8-8h56v-56h-56a8 8 0 0 1 0-16h64a8 8 0 0 1 8 8v72a8 8 0 0 1 -8 8h-56v56h56a8 8 0 0 1 0 16z" fill="#688cba"/><path d="m304 272h-64a8 8 0 0 1 -8-8v-72a8 8 0 0 1 8-8h56v-56h-56a8 8 0 0 1 0-16h64a8 8 0 0 1 8 8v72a8 8 0 0 1 -8 8h-56v56h56a8 8 0 0 1 0 16z" fill="#688cba"/><circle cx="360" cy="192" fill="#414649" r="16"/><g fill="#7e8589"><circle cx="360" cy="144" r="8"/><circle cx="360" cy="240" r="8"/><circle cx="360" cy="112" r="8"/><circle cx="360" cy="272" r="8"/><path d="m240 368-40 32h16v32h16v-16h16v16h16v-32h16z"/></g></svg>