<svg id="Capa_1" enable-background="new 0 0 512 512" height="512" viewBox="0 0 512 512" width="512" xmlns="http://www.w3.org/2000/svg"><g><g><g><path d="m112.075 448.842h-14.12c-5.786 0-10.476-4.69-10.476-10.476v-35.9h46.375l-11.751 38.927c-1.335 4.423-5.409 7.449-10.028 7.449z" fill="#dbb72b"/></g></g><g><g><path d="m399.926 448.842h14.119c5.786 0 10.476-4.69 10.476-10.476v-35.9h-46.376l11.751 38.927c1.336 4.423 5.41 7.449 10.03 7.449z" fill="#dbb72b"/></g></g><g><g><path d="m492.022 402.466h-472.044c-6.891 0-12.478-5.587-12.478-12.478v-314.351c0-6.891 5.587-12.478 12.478-12.478h472.044c6.891 0 12.478 5.587 12.478 12.478v314.352c0 6.891-5.586 12.477-12.478 12.477z" fill="#faf0b0"/></g></g><g><g><path d="m492.022 63.159h-30c6.892 0 12.478 5.587 12.478 12.478v314.352c0 6.891-5.587 12.478-12.478 12.478h30c6.892 0 12.478-5.587 12.478-12.478v-314.352c0-6.892-5.586-12.478-12.478-12.478z" fill="#f8e883"/></g></g><g><g><path d="m344.658 357.924h-287.695c-5.424 0-9.821-4.397-9.821-9.821v-230.58c0-5.424 4.397-9.821 9.821-9.821h287.695c5.424 0 9.821 4.397 9.821 9.821v230.58c0 5.424-4.397 9.821-9.821 9.821z" fill="#f7f7f7"/></g></g><g><g><path d="m344.658 107.701h-30c5.424 0 9.821 4.397 9.821 9.821v230.58c0 5.424-4.397 9.821-9.821 9.821h30c5.424 0 9.821-4.397 9.821-9.821v-230.58c0-5.424-4.397-9.821-9.821-9.821z" fill="#e8e8e8"/></g></g><g><g><path d="m388.726 107.701h81.962v50.123h-81.962z" fill="#f7f7f7"/></g></g><g><g><circle cx="429.706" cy="306.158" fill="#f3d332" r="32.467"/></g></g><g><g><path d="m355.479 287.791h-6.462c-30.364 0-54.979-24.615-54.979-54.979 0-30.364 24.615-54.979 54.979-54.979h6.462z" fill="#f7e365"/></g></g><g><path d="m209.655 394.966h-75.8-46.376-67.501c-2.745 0-4.978-2.233-4.978-4.978v-314.351c0-2.745 2.233-4.978 4.978-4.978h71.486c4.142 0 7.5-3.358 7.5-7.5s-3.358-7.5-7.5-7.5h-71.486c-11.016 0-19.978 8.962-19.978 19.978v314.352c0 11.016 8.962 19.978 19.978 19.978h60.001v28.399c0 9.912 8.064 17.976 17.976 17.976h14.12c7.985 0 14.9-5.136 17.209-12.781l10.142-33.595h70.23c4.142 0 7.5-3.358 7.5-7.5-.001-4.142-3.359-7.5-7.501-7.5zm-94.731 44.259c-.382 1.266-1.527 2.116-2.849 2.116h-14.12c-1.641 0-2.976-1.335-2.976-2.976v-28.399h28.777z"/><path d="m492.022 55.659h-370.558c-4.142 0-7.5 3.358-7.5 7.5s3.358 7.5 7.5 7.5h370.558c2.745 0 4.978 2.233 4.978 4.978v314.352c0 2.745-2.233 4.978-4.978 4.978h-67.501-46.375-138.491c-4.142 0-7.5 3.358-7.5 7.5s3.358 7.5 7.5 7.5h132.921l10.141 33.595c2.308 7.645 9.224 12.781 17.209 12.781h14.119c9.912 0 17.976-8.064 17.976-17.976v-28.399h60.001c11.017 0 19.978-8.962 19.978-19.978v-314.353c0-11.016-8.961-19.978-19.978-19.978zm-75.001 382.707c0 1.641-1.335 2.976-2.976 2.976h-14.119c-1.322 0-2.468-.85-2.85-2.116l-8.832-29.26h28.776v28.4z"/><path d="m388.726 165.324h81.961c4.143 0 7.5-3.358 7.5-7.5v-50.122c0-4.142-3.357-7.5-7.5-7.5h-81.961c-4.143 0-7.5 3.358-7.5 7.5v50.122c0 4.142 3.357 7.5 7.5 7.5zm7.5-50.123h66.961v35.122h-66.961z"/><path d="m388.726 204.934h81.961c4.143 0 7.5-3.358 7.5-7.5s-3.357-7.5-7.5-7.5h-81.961c-4.143 0-7.5 3.358-7.5 7.5s3.357 7.5 7.5 7.5z"/><path d="m388.726 240.614h81.961c4.143 0 7.5-3.358 7.5-7.5s-3.357-7.5-7.5-7.5h-81.961c-4.143 0-7.5 3.358-7.5 7.5s3.357 7.5 7.5 7.5z"/><path d="m389.739 306.158c0 22.038 17.93 39.967 39.968 39.967s39.967-17.929 39.967-39.967-17.929-39.967-39.967-39.967c-22.039 0-39.968 17.929-39.968 39.967zm64.934 0c0 13.767-11.2 24.967-24.967 24.967-13.768 0-24.968-11.2-24.968-24.967s11.2-24.967 24.968-24.967c13.767 0 24.967 11.2 24.967 24.967z"/><path d="m39.641 117.522v230.581c0 9.551 7.77 17.321 17.321 17.321h287.695c9.551 0 17.321-7.77 17.321-17.321v-230.581c0-9.551-7.771-17.321-17.321-17.321h-287.695c-9.55 0-17.321 7.77-17.321 17.321zm307.338 162.718c-25.237-1.072-45.44-21.931-45.44-47.427 0-25.497 20.203-46.355 45.44-47.427zm0-162.718v52.863c-33.509 1.082-60.44 28.66-60.44 62.427s26.931 61.346 60.44 62.427v52.863c0 1.28-1.041 2.321-2.321 2.321h-287.696c-1.28 0-2.321-1.041-2.321-2.321v-230.58c0-1.28 1.041-2.321 2.321-2.321h287.695c1.281 0 2.322 1.041 2.322 2.321z"/><path d="m165.042 223.243h71.535c4.142 0 7.5-3.358 7.5-7.5s-3.358-7.5-7.5-7.5h-71.535c-4.142 0-7.5 3.358-7.5 7.5s3.358 7.5 7.5 7.5z"/><path d="m165.042 257.382h71.535c4.142 0 7.5-3.358 7.5-7.5s-3.358-7.5-7.5-7.5h-71.535c-4.142 0-7.5 3.358-7.5 7.5s3.358 7.5 7.5 7.5z"/></g></g></svg>