<svg id="Capa_1" enable-background="new 0 0 497 497" height="512" viewBox="0 0 497 497" width="512" xmlns="http://www.w3.org/2000/svg"><path d="m37.5 497h15c4.142 0 7.5-3.358 7.5-7.5v-67.5h-30v67.5c0 4.142 3.358 7.5 7.5 7.5z" fill="#353535"/><path d="m437 422v67.5c0 4.142 3.358 7.5 7.5 7.5h15c4.142 0 7.5-3.358 7.5-7.5v-67.5z" fill="#353535"/><path d="m15 82.5h467v75h-467z" fill="#808080"/><path d="m489.5 105h-22.5l-45-52.5 45-52.5h22.5c4.142 0 7.5 3.358 7.5 7.5v90c0 4.142-3.358 7.5-7.5 7.5z" fill="#b3b3b3"/><path d="m467 105h-459.5c-4.142 0-7.5-3.358-7.5-7.5v-90c0-4.142 3.358-7.5 7.5-7.5h459.5z" fill="#ccc"/><path d="m497 407-60-60 30 120h22.5c4.142 0 7.5-3.358 7.5-7.5z" fill="#b3b3b3"/><path d="m467 287-467 120v52.5c0 4.142 3.358 7.5 7.5 7.5h459.5z" fill="#c7c7c7"/><path d="m497 407h-30l-45-136 45-136h22.5c4.142 0 7.5 3.358 7.5 7.5z" fill="#353535"/><path d="m0 142.5v264.5h467v-272h-459.5c-4.142 0-7.5 3.358-7.5 7.5z" fill="#4f4f4f"/><circle cx="369.5" cy="52.5" fill="#808080" r="22.5"/><circle cx="127.5" cy="52.5" fill="#808080" r="22.5"/><path d="m437 377h-30l-45-76 45-76h30z" fill="#ec4b24"/><path d="m60 225h347v152h-347z" fill="#f26d1f"/><path d="m422 165h-30v30h30c8.25 0 15-6.75 15-15s-6.75-15-15-15z" fill="#808080"/><path d="m75 195h317c8.25 0 15-6.75 15-15s-6.75-15-15-15h-317c-8.25 0-15 6.75-15 15s6.75 15 15 15z" fill="#b3b3b3"/><path d="m317 75h-30l-45-22.5 45-22.5h30z" fill="#353535"/><path d="m180 30h107v45h-107z" fill="#4f4f4f"/></svg>