<svg id="Layer_5" enable-background="new 0 0 64 64" height="512" viewBox="0 0 64 64" width="512" xmlns="http://www.w3.org/2000/svg"><g><g><g><path d="m42 58v2c0 1.1-.9 2-2 2h-36c-1.1 0-2-.9-2-2v-2h12 12z" fill="#fcd770"/></g><g><path d="m40 42h-6-16-14c-1.1 0-2 .9-2 2v14h40v-14c0-1.1-.9-2-2-2z" fill="#ffeaa7"/></g><g><path d="m14 54h12v4h-12z" fill="#e6e9ed"/></g><g><path d="m30 46h8v8h-8z" fill="#ff826e"/></g><g><path d="m32 36 2 6h-16l2-6z" fill="#aab2bd"/></g><g><path d="m50 6v26c0 2.21-1.79 4-4 4h-14-12-14c-2.21 0-4-1.79-4-4v-26c0-2.21 1.79-4 4-4h40c2.21 0 4 1.79 4 4z" fill="#ccd1d9"/></g><g><path d="m46 7v20c0 .55-.45 1-1 1h-38c-.55 0-1-.45-1-1v-20c0-.55.45-1 1-1h38c.55 0 1 .45 1 1z" fill="#69d6f4"/></g><g><path d="m26 18h4v4h-4z" fill="#e6e9ed"/></g><g><path d="m18 18h4v4h-4z" fill="#e6e9ed"/></g><g><path d="m10 18h4v4h-4z" fill="#e6e9ed"/></g><g><path d="m26 10h4v4h-4z" fill="#fcd770"/></g><g><path d="m18 10h4v4h-4z" fill="#fcd770"/></g><g><path d="m10 10h4v4h-4z" fill="#fcd770"/></g><g><path d="m34 10h8v14h-8z" fill="#ff826e"/></g><g><path d="m62 52v2c0 4.42-3.58 8-8 8-2.21 0-4.21-.9-5.66-2.34-1.44-1.45-2.34-3.45-2.34-5.66v-2z" fill="#aab2bd"/></g><g><path d="m52 42v4c0 .55.22 1.05.59 1.41.36.37.86.59 1.41.59 1.1 0 2-.9 2-2v-4c3.31 0 6 2.69 6 6v4h-16v-4c0-3.31 2.69-6 6-6z" fill="#aab2bd"/></g><g><path d="m56 42v4c0 1.1-.9 2-2 2-.55 0-1.05-.22-1.41-.59-.37-.36-.59-.86-.59-1.41v-4z" fill="#ccd1d9"/></g></g><g><path d="m56 41h-4c-3.86 0-7 3.14-7 7v6c0 4.962 4.038 9 9 9s9-4.038 9-9v-6c0-3.86-3.14-7-7-7zm-3 2h2v3c0 .551-.449 1-1 1s-1-.449-1-1zm-2 .101v2.899c0 1.654 1.346 3 3 3s3-1.346 3-3v-2.899c2.279.465 4 2.484 4 4.899v3h-14v-3c0-2.414 1.721-4.434 4-4.899zm3 17.899c-3.86 0-7-3.14-7-7v-1h14v1c0 3.86-3.14 7-7 7z"/><path d="m40 41h-5.279l-1.333-4h12.612c2.757 0 5-2.243 5-5v-26c0-2.757-2.243-5-5-5h-40c-2.757 0-5 2.243-5 5v26c0 2.757 2.243 5 5 5h12.612l-1.333 4h-13.279c-1.654 0-3 1.346-3 3v16c0 1.654 1.346 3 3 3h36c1.654 0 3-1.346 3-3v-16c0-1.654-1.346-3-3-3zm-37-9v-26c0-1.654 1.346-3 3-3h40c1.654 0 3 1.346 3 3v26c0 1.654-1.346 3-3 3h-40c-1.654 0-3-1.346-3-3zm17.721 5h10.558l1.333 4h-13.224zm-16.721 6h36c.551 0 1 .449 1 1v13h-14v-4h-14v4h-10v-13c0-.551.449-1 1-1zm21 14h-10v-2h10zm15 4h-36c-.551 0-1-.449-1-1v-1h38v1c0 .551-.449 1-1 1z"/><path d="m39 45h-10v10h10zm-2 4h-2v-2h2zm-4-2v2h-2v-2zm-2 4h2v2h-2zm4 2v-2h2v2z"/><path d="m25 45h2v2h-2z"/><path d="m13 45h2v2h-2z"/><path d="m9 45h2v2h-2z"/><path d="m17 45h2v2h-2z"/><path d="m21 45h2v2h-2z"/><path d="m5 45h2v2h-2z"/><path d="m17 49h2v2h-2z"/><path d="m25 49h2v2h-2z"/><path d="m21 49h2v2h-2z"/><path d="m9 49h2v2h-2z"/><path d="m5 49h2v2h-2z"/><path d="m13 49h2v2h-2z"/><path d="m5 53h2v2h-2z"/><path d="m9 53h2v2h-2z"/><path d="m47 27v-20c0-1.103-.897-2-2-2h-38c-1.103 0-2 .897-2 2v20c0 1.103.897 2 2 2h38c1.103 0 2-.897 2-2zm-40 0v-20h38l.001 20z"/><path d="m42 31h2v2h-2z"/><path d="m38 31h2v2h-2z"/><path d="m34 31h2v2h-2z"/><path d="m33 25h10v-16h-10zm2-14h6v12h-6z"/><path d="m9 15h6v-6h-6zm2-4h2v2h-2z"/><path d="m17 15h6v-6h-6zm2-4h2v2h-2z"/><path d="m25 15h6v-6h-6zm2-4h2v2h-2z"/><path d="m9 23h6v-6h-6zm2-4h2v2h-2z"/><path d="m17 23h6v-6h-6zm2-4h2v2h-2z"/><path d="m25 23h6v-6h-6zm2-4h2v2h-2z"/></g></g></svg>