<svg id="Layer_1_1_" enable-background="new 0 0 64 64" height="512" viewBox="0 0 64 64" width="512" xmlns="http://www.w3.org/2000/svg"><path d="m5 61h4l2-4h-6z" fill="#3a4c63"/><path d="m14.005 39.684 1.995 7.316h6.503l-3.466-11.489 11.489-3.466.891 2.955h8.583v12h8l1.995-7.316c.593-2.175 2.569-3.684 4.824-3.684h4.181v-5c0-1.657-1.343-3-3-3h-48c-1.657 0-3 1.343-3 3v5h4.181c2.255 0 4.231 1.509 4.824 3.684z" fill="#59aae2"/><path d="m55 61h4v-4h-6z" fill="#3a4c63"/><path d="m28 35h3.417l-.891-2.954-11.488 3.465 3.465 11.489 5.497-1.658z" fill="#f9da55"/><g fill="#59aae2"><path d="m40 47h-12-5.497-6.503-13v10h2 6 42 6 2v-10h-13z"/><path d="m60 36h-1-4.181c-2.255 0-4.231 1.509-4.824 3.684l-1.995 7.316h13v-10c0-.552-.448-1-1-1z"/><path d="m14.005 39.684c-.593-2.175-2.569-3.684-4.824-3.684h-4.181-1c-.552 0-1 .448-1 1v10h13z"/></g><path d="m31.417 35h-3.417v10.342 1.658h12v-12z" fill="#f9da55"/><path d="m15 3v13h34v-13zm29 9h-24v-5h24z" fill="#f9da55"/><path d="m20 7h24v5h-24z" fill="#fff"/><path d="m28 35v12h12l-1.192-.53c-4.995-2.22-8.889-6.352-10.808-11.47z" fill="#bba340"/><path d="m26 33.411v12.534l2-.603v-10.342h3.417l-.891-2.954z" fill="#bba340"/><path d="m54.819 36h4.181v-2.276h-.414-5.046c-2.721 0-5.106 1.821-5.822 4.447l-2.408 8.829h2.69l1.995-7.316c.593-2.175 2.569-3.684 4.824-3.684z" fill="#4380aa"/><path d="m10.46 33.724h-5.046-.414v2.276h4.181c2.255 0 4.231 1.509 4.824 3.684l1.995 7.316h2.69l-2.408-8.829c-.716-2.626-3.101-4.447-5.822-4.447z" fill="#4380aa"/><path d="m3 54h58v3h-58z" fill="#4380aa"/><path d="m60 35v-4c0-2.206-1.794-4-4-4h-48c-2.206 0-4 1.794-4 4v4c-1.103 0-2 .897-2 2v10 10c0 .552.447 1 1 1h1v3c0 .552.447 1 1 1h4c.379 0 .725-.214.895-.553l1.723-3.447h40.764l1.724 3.447c.169.339.515.553.894.553h4c.553 0 1-.448 1-1v-3h1c.553 0 1-.448 1-1v-10-10c0-1.103-.897-2-2-2zm0 2v9h-10.69l1.65-6.052c.474-1.736 2.061-2.948 3.859-2.948zm-54-6c0-1.103.897-2 2-2h48c1.103 0 2 .897 2 2v4h-3.181c-2.698 0-5.078 1.818-5.789 4.421l-1.794 6.579h-6.236v-11c0-.552-.447-1-1-1h-7.84l-.676-2.243c-.076-.254-.25-.467-.484-.593-.233-.125-.507-.152-.762-.076l-11.489 3.466c-.254.077-.467.251-.592.485-.126.233-.153.507-.076.761l3.076 10.2h-4.393l-1.794-6.579c-.711-2.603-3.091-4.421-5.789-4.421h-3.181zm21 4v9.599l-3.828 1.155-2.889-9.574 9.574-2.888.214.708h-2.071c-.553 0-1 .448-1 1zm2 1h10v10h-10zm-25 1h5.181c1.799 0 3.386 1.212 3.859 2.948l1.65 6.052h-10.69zm4.382 23h-2.382v-2h3.382zm49.618 0h-2.382l-1-2h3.382zm2-4h-56v-8h12 6.5.003.003 5.494 12 8 12z"/><path d="m49 17c.553 0 1-.448 1-1v-13c0-.552-.447-1-1-1h-34c-.553 0-1 .448-1 1v13c0 .552.447 1 1 1zm-33-13h32v11h-32z"/></svg>