<?xml version="1.0" encoding="iso-8859-1"?>
<!-- Generator: Adobe Illustrator 19.0.0, SVG Export Plug-In . SVG Version: 6.00 Build 0)  -->
<svg version="1.1" id="Capa_1" xmlns="http://www.w3.org/2000/svg" xmlns:xlink="http://www.w3.org/1999/xlink" x="0px" y="0px"
	 viewBox="0 0 512 512" style="enable-background:new 0 0 512 512;" xml:space="preserve">
<path style="fill:#EA8D4E;" d="M25.274,27.067c-9.063,3.539-12.325,21.368-8.587,29.72c2.787,6.224,10.744,8.625,15.71,12.778
	c-3.985,3.004-13.558,5.48-16.024,10.417c-2.938,5.878,1.356,18.456,1.688,24.71c0.614,11.581,0.572,23.347,0.774,34.938
	c0.357,20.495,2.146,40.921,3.63,61.354c0.761,10.485,1.467,20.977,1.843,31.483c0.269,7.519,2.197,18.746-2.334,25.231
	c-3.347,4.791-8.138,7.424-10.578,13.233c-5.479,13.042-3.504,33.501-3.507,47.629c-0.001,12.338-0.558,23.051,2.993,34.7
	c3.483,11.426,2.801,23.268,2.802,35.123c0.003,16.13,0.138,32.441,1.755,48.406c1.09,10.743,5.855,15.699,17.16,15.971
	c8.585,0.206,17.441-1.419,26.257-1.375c11.476,0.058,22.347-0.506,33.7-1.684c21.619-2.243,46.255-0.405,68.029,0.71
	c42.446,2.173,84.11-4.833,126.428-4.829c19.101,0.001,37.906,0.885,56.954-0.518c10.539-0.776,20.976-0.165,31.503-0.106
	c11.103,0.062,21.374,3.109,32.356,3.228c10.817,0.117,20.52,3.502,31.446,3.618c13.126,0.139,26.178-2.127,39.026-4.587
	c26.786-5.128,21.532-26.447,21.51-48.396c-0.014-13.843-0.272-27.775-0.231-41.574c0.035-11.698,6.292-22.508,6.811-34.346
	c0.658-15.007-1.979-29.762-3.827-44.579c-0.61-4.882-1.171-10.769-4.534-14.554c-4.64-5.221-11.645-6.814-10.924-15.036
	c0.297-3.402,2.693-7.059,3.175-10.747c0.628-4.811,0.399-9.705,0.66-14.54c1.178-21.917,2.407-43.835,3.062-65.814
	c0.688-23.102,7.914-48.924,3.219-71.824c-1.119-5.459-0.696-4.782-5.514-8.095c-4.703-3.235-11.223-4.65-7.087-9.729
	c3.82-4.692,8.987-3.602,10.949-11.322c1.163-4.579,0.642-8.811-0.284-13.532c-2.025-10.331-9.799-17.416-20.729-15.417
	c-13.104,2.396-16.439,17.839-12.088,28.972c1.186,3.032,5.439,8.694,1.959,11.893c-2.313,2.125-10.986-0.354-13.883,0.341
	c-8.824,2.118-8.891,17.131-9.828,25.694c-0.564,5.138,0.775,16.772-4.602,19.244c-4.362,2.006-16.021-1.827-20.87-2.409
	c-9.462-1.135-18.96-1.977-28.462-2.688c-18.512-1.385-37.063-2.176-55.602-3.125c-20.285-1.039-40.686-5.278-61.05-4.571
	c-28.65,0.993-57.313,1.337-85.888,3.66c-26.023,2.116-52.197,4.482-78.315,5.436c-8.823,0.322-17.65,0.24-26.47,0.679
	c-6.309,0.314-9.179,1.481-9.636-5.068c-0.774-11.077,6.327-25.016-3.166-34.983c-5.263-5.526-16.313-2.765-22.7-1.932
	c6.427-8.329,12.104-25.233,6.781-35.373C48.004,28.277,32.588,17.894,25.274,27.067z"/>
<g>
	<path style="fill:#CC6D3E;" d="M22.699,32.219c-12.494,5.221-6.716,31.044,1.584,37.348c4.225,3.209,7.087,2.35-1.459,6.343
		c-2.895,1.352-4.438,0.523-6.106,3.039c-1.207,1.819-0.405,5.487-0.464,7.546c-0.236,8.237-0.142,16.543,0.057,24.781
		c0.576,23.946,3.772,47.653,6.418,71.356c1.951,17.478,2.396,35.257,3.164,52.79c0.151,3.447-0.055,15.064,3.191,17.186
		c4.203,2.748,22.505-5.244,24.535-9.44c1.5-3.101-1.721-10.316-2.367-13.515c-1.814-8.979-3.244-18.017-4.508-27.087
		c-2.508-18.018-3.976-35.876-4.066-54.054c-0.101-19.917-0.899-39.754,0.102-59.66c0.549-10.9,1.641-20.335-4.02-30.088
		c-3.335-5.748-8.83-10.485-10.226-17.142C27.615,37.239,30.366,31.728,22.699,32.219z"/>
	<path style="fill:#CC6D3E;" d="M70.989,113.99c-0.818,17.704-1.383,38.683,6.995,54.761c8.173,15.687,22.889,24.454,39.178,29.891
		c21.045,7.023,44.425,16.821,59.72,32.803c15.081,15.76,23.769,15.66,44.182,13.217c16.609-1.988,33.855-5.229,50.675-4.5
		c11.438,0.496,33.444,6.656,29.158-11.071c-2.525-10.444-5.927-18.321-6.447-29.314c-0.47-9.928-0.797-21.284-5.015-30.496
		c-2.938-6.418-6.188-10.672-13.035-11.561c-4.401-0.571-9.75,1.067-13.978,2.229c-10.172,2.794-19.57,5.339-30.278,6.096
		c-20.822,1.473-40.935,0.506-61.745-0.355c-8.528-0.353-16.539-1.517-24.801-3.67c-8.834-2.301-21.938-3.695-28.977-9.821
		c-6.95-6.048-14.039-20.258-14.144-29.748c-0.052-4.609,3.239-8.924-2.03-11.597c-3.191-1.619-10.574,1.697-13.665,2.475
		C82.016,114.529,70.852,113.677,70.989,113.99z"/>
	<path style="fill:#CC6D3E;" d="M445.08,68.919c-5.064,24.149-4.105,48.242-4.993,72.584c-0.663,18.205-3.268,35.698-4.962,53.766
		c-0.945,10.091-5.051,35.809,2.597,44.894c2.974,3.534,8.72,3.306,13.228,3.252c15.92-0.19,10.798-18.521,11.01-30.6
		c0.646-36.668,6.344-72.918,6.301-109.47c-0.009-7.203-1.33-16.176,0.762-23.216c1.778-5.985,6.611-7.379,9.473-11.713
		c4.074-6.17,1.738-16.958,1.984-23.729c0.108-2.989,2.879-12.603,1.311-15.059c-3.742-5.859-11.968,1.342-14.801,4.49
		c-2.47,2.745-5.672,6.312-6.457,9.963c-1.41,6.549,4.117,13.911,3.076,19.951c-0.627,3.631,1.393,3.566-4.533,4.341
		c-3.141,0.411-4.793-2.402-7.918-0.689C446.953,69.988,447.47,74.385,445.08,68.919z"/>
	<path style="fill:#CC6D3E;" d="M11.109,350.936c4.527,20.631-0.689,43.651-0.642,64.572c0.019,8.115-1.372,32.111,7.69,37.22
		c1.592,0.897,7.504-0.044,9.092-0.116c7.041-0.316,14.014-0.602,21.107-0.583c25.024,0.067,50.09-2.51,75.107-3.225
		c17.995-0.514,36.134,1.687,54.08,0.345c15.061-1.125,29.965-1.664,45.088-1.634c7.849,0.016,15.105-1.313,22.947-1.288
		c9.148,0.029,18.208,1.43,27.328,1.95c9.247,0.527,18.519,0.31,27.787,0.275c19.412-0.071,38.824-0.143,58.236-0.214
		c3.713-0.014,6.67,0.6,10.229,1.18c4.854,0.792,10.273,0.208,15.187,0.205c10.288-0.005,20.577-0.165,30.856-0.583
		c7.613-0.31,83.561,6.079,80.811-8.517c-1.479-7.854-16.047-7.969-21.534-8.309c-18.756-1.162-37.563-0.834-56.364-0.834
		c-40.82,0-81.879,0.598-122.551-2.831c-16.634-1.402-33.308-1.932-49.934-3.612c-16.724-1.69-33.408-5.153-48.852-12.367
		c-9.858-4.604-22.743-13.243-20.369-26.106c4.473-24.239,35.847-9.58,50.652-6.998c13.892,2.423,26.657-1.579,40.511-2.465
		c7.237-0.463,13.378,0.55,20.46,1.31c8.842,0.948,16.556-1.714,25.198-2.996c35.665-5.286,72.879-5.539,108.774-3.889
		c21.014,0.966,46.709,4.062,64.049-9.551c4.811-3.777,8.742-7.945,9.957-14.21c2.621-13.529-5.547-16.708-16.502-21.224
		c-15.986-6.59-29.949-12.553-47.541-13.783c-17.111-1.196-33.643-2.066-50.531-5.474c-17.748-3.582-35.353-5.054-53.36-6.388
		c-20.653-1.529-40.538-5.903-61.04-8.126c-45.163-4.896-90.095,2.457-135.181,3.485c-26.742,0.61-53.236-0.28-79.969,2.486
		C25.333,301.392,14.872,325.837,11.109,350.936z"/>
</g>
<g>
	<path style="fill:#C45339;" d="M40.084,450.736c-1.004,5.776-3.707,20.872,0.082,26.236c2.636,3.731,12.154,4.393,16.061,4.701
		c8.275,0.651,16.77-0.087,25.063,0.291c5.85,0.266,11.552,1.107,16.949-0.944c4.397-1.671,7.091-4.848,8.95-8.834
		c2.508-5.376,2.646-16.997-2.868-20.852c-6.058-4.235-22.9-0.049-30.22-0.708C66.242,449.918,46.635,446.069,40.084,450.736z"/>
	<path style="fill:#C45339;" d="M407.641,449.348c-1.612,9.557-9.137,25.561,2.259,30.249c7.839,3.226,16.672,2.84,24.942,3.035
		c8.285,0.195,16.82,0.941,25.027,0.575c3.148-0.141,11.342-0.815,13.459-3.088c4.139-4.446,0.129-13.675-0.656-18.684
		c-0.565-3.615,1.176-7.144-1.779-9.384c-4.487-3.4-18.199-2.687-23.571-2.707C435.938,449.303,424.65,450.36,407.641,449.348z"/>
</g>
<g>
	<path style="fill:#AD3E2B;" d="M41.19,453.2c-0.557,6.952-2.399,18.194-0.013,25.168c1.189,3.476,2.517,3.276,6.615,4.251
		c6.447,1.534,20.393,3.094,25.713-1.918c3.53-3.326,2.373-8.966,2.478-13.393c0.101-4.244,2.957-14.371-0.084-17.214
		c-2.043-1.91-10.496-1.5-12.573-1.562C56.349,448.324,48.187,447.554,41.19,453.2z"/>
	<path style="fill:#AD3E2B;" d="M407.534,452.427c-1.327,6.914-3.17,17.418-0.138,23.998c2.039,4.427,3.967,4.418,8.673,4.644
		c5.944,0.285,21.886,5.137,26.306-0.566c2.553-3.293,0.26-12.229,0.484-16.189c0.144-2.542,3.051-12.886,0.697-15.314
		c-1.99-2.054-9.127-1.263-11.393-1.173C426.08,448.066,419.339,450.423,407.534,452.427z"/>
</g>
<path style="fill:#F2F1E8;" d="M60.797,151.4c-11.426-0.112-18.789,7.588-13.203,18.798c3.398,6.817,13.34,7.289,16.657,14.386
	c3.921,8.388,0.896,22.944,0.425,32.062c-0.428,8.288,2.02,15.849,2.516,23.842c-16.411,2.029-37.228,11.671-49.286,23.197
	c-9.817,9.385-10.277,24.224-9.268,37.007c1.086,13.76-0.107,27.646,1.568,41.388c1.974,16.173,18.927,25.164,34.271,20.127
	c5.693-1.869,13.337-5.293,17.707-9.597c4.418-4.35,5.623-9.88,12.342-4.665c3.31,2.569,4.016,7.302,7.095,10.065
	c4.353,3.906,11.006,4.069,16.513,3.423c5.528-0.649,9.846-3.245,14.217-6.713c2.386-1.893,4.878-5.857,7.895-6.398
	c4.598-0.825,8.396,6.101,12.15,9.041c5.503,4.308,12.153,7.338,19.403,5.377c2.672-0.723,7.235-2.835,9.409-4.54
	c2.668-2.091,3.559-6.462,6.207-8.332c6.708-4.737,9.848,2.709,14.377,6.881c6.984,6.433,15.791,7.504,24.912,6.461
	c4.76-0.544,10.139-1.694,14.211-4.219c3.985-2.471,4.578-5.934,7.9-8.604c7.219-5.802,8.69,3.943,14.314,7.829
	c5.492,3.794,18.564,5.057,24.413,1.566c5.315-3.173,7.073-9.528,10.319-14.499c5.576,2.389,6.529,11.088,11.783,14.539
	c5.783,3.798,17.438,3.774,23.85,2.399c5.013-1.074,9.143-3.867,13.332-6.624c3.395-2.234,10.215-9.808,14.729-9.703
	c5.302,0.124,10.737,8.658,14.7,11.788c5.846,4.617,11.539,7.972,19.248,6.623c15.421-2.698,7.343-21.499,26.482-13.256
	c8.563,3.688,12.25,12.317,23.013,10.03c8.688-1.846,17.426-8.805,20.704-16.456c10.866,20.163,47.243,26.77,54.66,0.525
	c4.326-15.311,3.284-35.444,1.746-51.212c-0.983-10.073-1.876-21.136-9.25-28.742c-11.827-12.199-26.03-13.374-41.009-18.811
	c-13.901-5.047-5.908-14.883-3.178-25.139c1.242-4.667,2.725-11.145,2.454-16.002c-0.229-4.144-2.634-8.444-2.047-12.682
	c1.745-12.598,26.409-21.535,17.452-35.67c-5.127-8.091-16.829-6.526-25.15-3.405c-4.742,1.778-7.838,5.925-12.955,6.36
	c-5.432,0.462-11.729-3.372-17.012-4.522c-15.84-3.45-33.31-2.567-49.457-1.954c-11.838,0.449-23.742,0.801-35.492,2.572
	c-6.131,0.924-14.703,3.972-20.825,1.138c-10.42-4.824-14.433-16.809-28.57-14.083c-16.562,3.193-1.628,19.814,2.002,27.445
	c4.835,10.166-1.397,23.923,0.272,34.878c1.305,8.562,7.892,20.147,5.147,28.836c-3.448,10.918-33.46,6.411-42.974,6.411
	c-23.84,0-11.167-17.335-8.166-32.645c1.847-9.417-2.803-17.272-2.62-26.787c0.196-10.222,23.994-30.807,8.454-36.861
	c-13.31-5.186-23.689,12.186-34.426,12.436c-7.421,0.173-14.908-2.081-22.554-2.083c-10.715-0.001-21.299-1.547-31.938-1.34
	c-14.239,0.276-30.012,1.455-44.018,3.782c-3.849,0.639-6.012,2.057-9.668,3.387C88.096,163.545,67.364,157.477,60.797,151.4z"/>
<g>
	<path style="fill:#D2D2CA;" d="M166.121,266.417c9.424,34.64,48.34,31.001,75.786,35.065c15.792,2.338,33.479,5.117,48.343,11.092
		c6.697,2.691,12.702,6.831,19.493,9.292c7.647,2.773,14.313,2.417,22.292,3.286c14.191,1.545,27.774,1.728,41.889,2.004
		c11.62,0.227,25.176,0.243,33.749,8.923c3.64,3.685,12.734,18.22,5.265,21.3c-6.773,2.793-12.714-8.166-19.549-8.315
		c-12.439-0.271-18.192,21.289-33.419,15.195c-8.267-3.309-10.972-13.528-20.449-13.727c-8.104-0.17-9.998,6.042-15.757,10.108
		c-11.092,7.834-35.134,5.013-40.266-9.144c-1.31-3.61-0.561-10.017-6.156-7.295c-0.452,0.22-1.805,5.416-2.155,6.061
		c-4.596,8.432-18.597,14.263-27.779,11.106c-3.76-1.293-7.503-4.597-10.123-7.377c-1.304-1.383-0.47-4.056-2.593-4.894
		c-4.186-1.652-17.689,11.156-22.052,12.637c-9.397,3.19-17.914,4.278-26.86-0.628c-3.57-1.957-7.301-4.473-10.15-7.242
		c-2.655-2.583-2.722-6.002-7.052-5.998c-4.385,0.003-13.469,9.342-17.438,11.688c-8.852,5.231-18.126,7.575-24.412-3.885
		c-3.294-6.008,0.407-10.959-7.908-9.191c-8.341,1.774-15.32,9.633-23.995,12.045c-8.884,2.471-14.491,2.609-22.683-2.484
		c-1.322-0.822-3.828-1.433-4.879-2.487c-0.832-0.835,0.129-3.916-0.691-4.453c-2.308-1.51-2.679-1.047-5.447-0.406
		c-7.076,1.639-13.393,9.104-21.045,11.121c-9.275,2.444-18.128,2.979-23.441-6.417c-6.086-10.765-6.74-24.272-8.422-36.137
		c-1.523-10.739-1.609-20.771,2.09-31.153c9.373-26.313,32.516-37.404,58.069-42.961c17.104-3.72,36.737-5.221,53.658-0.157
		c8.64,2.586,17.049,5.208,25.202,9.054C155.787,256.079,163.947,261.567,166.121,266.417z"/>
	<path style="fill:#D2D2CA;" d="M107.32,157.216c-8.207,31.572,27.893,44.676,50.372,54.167c11.433,4.827,23.671,6.398,35.19,10.815
		c3.651,1.399,10.118,3.767,10.642,8.397c1.474,13.035-26.693,6.419-33.376,6.116c-20.265-0.919-40.191,1.301-60.43,1.971
		c-8.986,0.298-17.976,0.267-26.964,0.581c-3.313,0.116-11.738,2.475-14.751,0.705c-3.666-2.154-2.205-4.627-2.354-8.39
		c-0.241-6.077-1.272-11.915-1.62-18.056c-0.456-8.022,2.269-19.992-2.508-26.887c-6.54-9.44-16.158-10.705-14.999-25.312
		C48.63,134.773,94.136,165.61,107.32,157.216z"/>
	<path style="fill:#D2D2CA;" d="M272.738,143c-6.386,9.229-1.48,13.396,3.23,21.499c3.787,6.514,5.379,10.13,3.858,17.86
		c-2.411,12.26-2.316,23.744,0.036,36.135c2.337,12.309,1.268,18.424,14.987,18.213c28.546-0.439,61.344-11.812,89.636-3.941
		c9.682,2.693,18.499,8.024,28.502,9.791c10.317,1.822,16.559-1.917,25.719-5.331c1.008-14.344-18.205-30.739-28.699-37.581
		c-10.111-6.591-20.938-12.728-32.766-15.005c-12.645-2.435-25.837-1.894-38.33-4.894c-15.747-3.782-27.21-8.775-35.302-22.315
		C300.072,151.508,288.293,137.162,272.738,143z"/>
</g>
<g>
	<path style="fill:#DB3333;" d="M106.674,157.216c-5.504,7.523-4.642,24.566-5.024,33.31c-0.438,9.986-0.708,20.425,0.002,30.405
		c0.245,3.45,0.39,9.448,2.456,12.437c2.494,3.61,0.793,1.752,5.105,3.453c4.382,1.728,17.055,5.51,21.667,3.054
		c8.839-4.707,0.156-31.758-0.273-40.044c-0.418-8.076,0.11-14.491,1.302-22.407c1.047-6.96,3.545-15.844,2.308-22.694
		C128.483,154.381,116.145,154.108,106.674,157.216z"/>
	<path style="fill:#DB3333;" d="M318.764,156.028c-1.35,1.838-1.946,5.223-2.579,7.243c-1.914,6.109-3.138,12.433-3.655,18.813
		c-0.257,3.173-1.447,6.176-1.522,9.325c-0.091,3.771,0.315,7.591,0.485,11.358c0.312,6.869,1.387,13.713,2.898,20.38
		c0.473,2.089,1.758,9.778,2.957,11.009c4.922,5.051,16.479,1.726,22.46,1.211c5.922-0.51,5.872,1.111,7.237-4.511
		c2.237-9.206-1.791-22.77-2.473-32.063c-0.684-9.33-0.805-18.658-0.055-27.953c0.307-3.8,2.898-10.787,1.242-14.595
		c-2.791-6.417-16.314-4.346-21.309-2.945c-1.587,0.445-4.09,1.033-5.289,2.254C319.022,155.698,318.89,155.856,318.764,156.028z"/>
</g>
<path d="M505.159,353.226c6.269-9.116,7.111-21.727,6.779-32.376c-0.384-12.297,0.653-25.057-1.056-37.234
	c-1.758-12.521-8.285-21.449-18.295-28.088c0.037-0.208,0.088-0.407,0.105-0.63c1.125-14.855,0.861-29.799,1.914-44.677
	c0.982-13.884,1.971-27.766,2.889-41.654c1.6-24.206,3.764-48.365,3.848-72.61c0.023-6.715,1.881-15.677-2.958-21.259
	c-2.096-2.418-5.662-3.273-8.593-4.379c0.394-0.209,0.773-0.42,1.121-0.633c4.85-2.962,8.332-8.113,9.949-13.493
	c2.877-9.559,0.505-21.065-6.9-27.982c-7.976-7.449-22.166-8.815-30.501-1.174c-7.962,7.299-8.952,20.043-5.866,29.85
	c0.662,2.108,1.631,4.291,2.854,6.36c-3.548-0.566-7.064-0.774-10.261-0.084c-6.394,1.381-9.084,6.981-10.072,12.957
	c-1.891,11.437-2.581,23.309-3.099,34.907c-9.795-3.972-20.398-4.928-30.947-5.55c-12.207-0.719-24.375-1.682-36.572-2.512
	c-11.988-0.816-23.98-1.554-35.965-2.43c-5.188-0.627-10.416-1.029-15.645-1.416c-3.688-0.362-7.397-0.685-11.086-0.845
	c-15.389-1.175-30.751-1.981-46.2-2.125c-16.38-0.152-32.698-0.015-49.017,1.479c-7.762,0.71-15.55,1.181-23.301,1.995
	c-0.648,0.068-1.277,0.168-1.908,0.265c-1.707,0.164-3.403,0.317-5.082,0.443c-12.926,0.97-25.861,1.752-38.793,2.633
	c-12.197,0.83-24.366,1.793-36.572,2.512c-10.549,0.622-21.153,1.579-30.947,5.55c-0.518-11.599-1.208-23.471-3.1-34.907
	c-0.988-5.976-3.679-11.576-10.071-12.957c-3.197-0.69-6.714-0.482-10.261,0.084c1.223-2.069,2.19-4.252,2.854-6.36
	c3.086-9.807,2.095-22.55-5.867-29.85c-8.334-7.641-22.524-6.275-30.5,1.174c-7.406,6.917-9.777,18.424-6.901,27.982
	c1.618,5.38,5.101,10.531,9.95,13.493c0.347,0.212,0.727,0.424,1.121,0.633c-2.932,1.105-6.498,1.961-8.594,4.379
	c-4.839,5.582-2.98,14.544-2.958,21.259c0.084,24.245,2.249,48.404,3.849,72.61c0.918,13.888,1.906,27.771,2.889,41.654
	c1.053,14.878,0.789,29.822,1.914,44.677c0.018,0.224,0.067,0.422,0.105,0.63c-10.011,6.639-16.538,15.567-18.295,28.088
	c-1.71,12.177-0.672,24.937-1.056,37.234c-0.331,10.649,0.51,23.261,6.778,32.376c0.375,9.387-1.451,18.913-1.408,28.341
	c0.049,10.772,1.424,21.537,1.308,32.295c-0.132,12.132-4.081,30.811,7.943,38.927c5.943,4.012,14.235,3.924,21.119,3.828
	c-2.046,9.057-3.996,21.756,2.106,28.051c7.594,7.834,23.18,5.011,32.822,4.477c11.056-0.612,25.227,2.583,35.06-3.908
	c7.89-5.208,10.149-21.763,4.835-30.22c7.313-0.203,14.627-0.341,21.943-0.263c13.452,0.143,26.85,0.382,40.28-0.558
	c6.735-0.471,13.472-1.011,20.212-1.479c3.84,0.118,7.681,0.219,11.531,0.271c20.047,0.272,40.097,0.19,60.141,0.742
	c27.49,0.756,55.281,2.28,82.851,0.903c10.61,0.397,21.212,0.234,31.848,0.121c7.317-0.078,14.632,0.061,21.944,0.263
	c-5.314,8.457-3.055,25.013,4.834,30.22c9.834,6.491,24.004,3.296,35.06,3.908c9.644,0.534,25.229,3.357,32.823-4.477
	c6.102-6.294,4.152-18.994,2.106-28.051c6.883,0.096,15.175,0.184,21.119-3.828c12.023-8.117,8.075-26.795,7.943-38.927
	c-0.116-10.758,1.258-21.523,1.308-32.295C506.611,372.139,504.785,362.613,505.159,353.226z M481.552,32.349
	c8.321,2.231,11.823,11.465,10.286,19.374c-0.768,3.956-2.684,7.487-5.748,10.114c-2.225,1.907-5.163,2.657-7.865,3.683
	c-3.398-1.344-6.25-2.737-8.471-6.012c-2.53-3.731-3.778-8.325-3.879-12.805C465.664,37.274,471.369,29.619,481.552,32.349z
	 M446.061,112.786c0.883-11.718,1.109-24.057,3.58-35.572c1.346-6.277,5.304-4.67,10.701-3.537
	c9.143,1.918,18.607,3.219,27.352,6.599c3.6,1.391,3.688,0.472,4.008,4.608c0.269,3.465-0.113,6.961-0.192,10.425
	c-0.22,9.592-0.221,19.015-1.11,28.596c-2.021,21.799-3.299,43.665-4.934,65.497c-1.496,19.993-3.963,40.383-3.09,60.487
	c-10.115-4.86-21.055-8.391-31.818-11.074c-0.26-0.064-0.518-0.119-0.775-0.182c4.438-7.575,6.748-17.45,7.27-25.586
	c0.334-5.249-0.688-10.489-1.473-15.656c-0.65-4.285-2.088-10.621,1.021-14.185c2.469-2.829,6.443-4.284,9.104-7.004
	c2.561-2.618,4.578-5.872,5.375-9.466c1.52-6.856-2.125-13.349-7.83-17.039c-5.784-3.741-13.371-4.955-20.094-3.33
	C443.957,135.194,445.219,123.952,446.061,112.786z M128.689,218.593c0.505,3.673,0.99,8.447,2.415,12.512
	c-7.378,0.012-14.747,0.196-22.097,0.651c-1.975-4.66-3.459-8.849-4.098-14.259c-0.719-6.079-1.044-12.287-1.206-18.404
	c-0.338-12.753,1.872-25.021,3.64-37.478c2.098-0.573,4.195-1.147,6.304-1.659c5.997-1.456,12.236-2.049,18.462-2.401
	c-1.12,4.803-1.63,9.851-2.25,14.633c-1.043,8.051-1.806,16.167-2.095,24.282C127.502,203.858,127.681,211.263,128.689,218.593z
	 M158.404,242.151c11.932,0.284,23.816,0.772,35.689,1.172c15.712,1.284,31.449,2.391,47.215,2.475
	c15.792,0.085,31.563-0.865,47.323-1.836c21.638-0.098,43.225-1.293,64.964-1.811c27.226-0.649,54.699-0.346,81.488,5.084
	c11.381,2.307,22.697,5.438,33.541,9.659c-1.539-0.161-3.08-0.296-4.618-0.412c-13.803-1.044-27.739-1.408-41.564-2.171
	c-35.423-1.953-70.775,2.065-105.92,6.038c-35.269,3.987-70.754,7.976-106.301,6.027c-33.44-1.834-66.411-8.621-99.853-10.542
	c-17.371-0.998-34.891-0.811-52.119,1.836c-13.104,2.014-25.207,5.654-36.822,11.032c5.081-4.496,11.728-7.582,17.779-10.128
	c12.094-5.087,24.863-8.735,37.709-11.339C103.705,241.806,131.179,241.502,158.404,242.151z M229.275,194.468
	c0.058,7.162-0.776,14.264-2.444,21.227c-1.482,6.188-5.26,12.823-5.538,19.161c-12.858-0.453-25.704-1.27-38.572-1.59
	c-1.271-0.032-2.54-0.072-3.811-0.11c-13.223-1.017-26.452-1.771-39.654-1.991c-0.906-4.612-3.154-9.415-3.896-13.938
	c-1.226-7.483-1.445-15.134-1.305-22.702c0.133-7.145,0.681-14.264,1.315-21.379c0.456-5.104,1.259-10.418,1.273-15.629
	c1.196,0.023,2.398,0.026,3.618-0.019c7.654-0.28,15.329-0.687,22.987-0.366c7.31,0.307,14.519,1.478,21.791,2.186
	c7.653,0.745,15.054,1.335,22.393,3.751c2.156,0.709,5.216-0.438,6.233-2.537c2.961-6.109,12.836-13.543,19.662-14.393
	c5.063-0.631,6.803,3.386,5.851,7.804c-1.138,5.276-5.871,8.129-9.103,12.055C223.063,174.519,229.197,184.712,229.275,194.468z
	 M313.653,231.421c-4.341,0.186-8.657,0.43-12.917,0.703c-3.411,0.218-6.822,0.443-10.232,0.667
	c-0.865-5.702-4.013-11.577-5.335-17.096c-1.669-6.963-2.502-14.065-2.444-21.227c0.078-9.756,6.213-19.949-0.801-28.47
	c-3.232-3.926-7.965-6.779-9.103-12.055c-0.953-4.418,0.788-8.435,5.851-7.804c6.825,0.85,16.701,8.284,19.662,14.393
	c1.018,2.099,4.077,3.246,6.232,2.537c3.335-1.098,6.684-1.808,10.06-2.337c-1.104,3.867-1.798,7.925-2.493,11.648
	c-1.299,6.954-2.057,14.039-2.382,21.104C309.197,205.521,309.37,219.714,313.653,231.421z M339.824,192.859
	c0.1,8.231,0.264,16.467,1.07,24.661c0.418,4.243,0.186,9.437,0.997,14.016c-6.923-0.456-13.923-0.514-20.894-0.354
	c-1.396-6.128-3.198-12.01-3.938-18.326c-0.79-6.745-0.989-13.571-0.783-20.355c0.207-6.834,0.892-13.65,1.929-20.407
	c0.62-4.044,1.738-8.096,2.539-12.158c2.057-0.221,4.125-0.416,6.215-0.619c5.077-0.495,10.123-1.209,15.193-1.703
	c-0.759,3.467-1.09,7.082-1.461,10.368C339.762,176.221,339.724,184.58,339.824,192.859z M457.488,157.985
	c8.957,5.133,0.866,12.218-4.594,15.967c-5.57,3.828-8.428,8.646-8.739,15.425c-0.405,8.813,2.788,17.465,1.173,26.268
	c-1.3,7.091-4.982,13.603-6.608,20.548c-29.335-5.718-59.122-5.881-88.948-4.164c-1.151-13.074-3.018-26.024-3.642-39.17
	c-0.363-7.662-0.495-15.329-0.136-22.993c0.198-4.206,0.955-8.441,1.477-12.663c0.427-0.024,0.853-0.054,1.279-0.072
	c7.658-0.321,15.334,0.086,22.987,0.366c2.045,0.075,4.049,0.039,6.035-0.054c6.925,0.339,13.903,0.893,20.58,2.514
	c7.171,1.741,14.218,4.205,21.606,4.893c6.807,0.634,12.596-1.342,18.406-4.722C444.439,156.595,450.706,154.098,457.488,157.985z
	 M75.194,116.964c23.942,0.038,47.97-1.573,71.844-3.281c12.558-0.898,25.152-1.573,37.681-2.827
	c7.582-0.759,15.623-1.317,23.299-2.921c1.957-0.057,3.913-0.099,5.873-0.172c15.992-0.597,31.887-0.611,47.889-0.311
	c16.019,0.3,31.944,1.137,47.902,2.539c6.752,0.593,13.52,0.878,20.29,1.107c11.641,1.091,23.331,1.752,34.989,2.585
	c23.875,1.708,47.902,3.318,71.844,3.281c-0.23,10.564,0.355,20.895,0.885,31.421c-5.258,2.558-9.998,6.173-16.164,5.986
	c-8.278-0.252-16.22-3.572-24.346-4.879c-10.642-1.711-21.68-1.755-32.432-1.823c-10.954-0.07-21.898,0.468-32.853,0.384
	c-9.129-0.07-18.079,0.164-26.894,2.375c-5.494-7.173-14.813-12.694-23.002-14.255c-11.674-2.225-19.701,6.99-17.872,18.247
	c1.001,6.166,4.655,10.438,8.761,14.885c3.219,3.487,3.797,5.103,2.574,9.818c-0.86,3.324-1.863,6.535-2.25,9.961
	c-0.943,8.337-0.351,16.867,1.006,25.122c0.932,5.675,2.127,13.436,5.099,19.307c-12.658,0.792-25.321,1.464-38.009,1.632
	c-3.172,0.042-6.341,0.021-9.509-0.025c3.632-5.994,4.962-14.705,5.981-20.914c1.355-8.255,1.948-16.785,1.006-25.122
	c-0.387-3.426-1.39-6.637-2.251-9.961c-1.222-4.715-0.645-6.331,2.574-9.818c4.105-4.448,7.76-8.719,8.762-14.885
	c1.829-11.257-6.198-20.472-17.872-18.247c-8.189,1.561-17.508,7.082-23.002,14.255c-8.814-2.211-17.765-2.444-26.895-2.375
	c-10.953,0.083-21.898-0.454-32.852-0.384c-10.753,0.068-21.791,0.112-32.432,1.823c-8.127,1.307-16.067,4.627-24.347,4.879
	c-6.165,0.187-10.905-3.429-16.164-5.986C74.839,137.859,75.426,127.528,75.194,116.964z M73.635,160.128
	c5.811,3.379,11.599,5.355,18.405,4.722c3.945-0.367,7.791-1.244,11.611-2.243c-4.102,12.866-5.007,27.409-4.757,40.437
	c0.143,7.368-1.233,20.875,2.704,29.258c-9.477,0.813-18.922,2.06-28.319,3.892c-1.626-6.945-5.308-13.457-6.608-20.548
	c-1.615-8.803,1.579-17.455,1.174-26.268c-0.312-6.779-3.169-11.597-8.74-15.425c-5.459-3.75-13.55-10.834-4.593-15.967
	C61.294,154.098,67.561,156.595,73.635,160.128z M20.161,51.723c-1.536-7.909,1.965-17.143,10.286-19.374
	c10.184-2.73,15.888,4.925,15.677,14.354c-0.1,4.48-1.348,9.073-3.878,12.805c-2.221,3.274-5.072,4.667-8.471,6.012
	c-2.703-1.026-5.642-1.776-7.866-3.683C22.846,59.209,20.93,55.678,20.161,51.723z M20.299,84.884
	c0.32-4.136,0.408-3.217,4.007-4.608c8.745-3.38,18.21-4.681,27.352-6.599c5.397-1.133,9.356-2.74,10.702,3.537
	c2.471,11.516,2.697,23.854,3.58,35.572c0.842,11.166,2.104,22.408,2.906,33.58c-6.725-1.625-14.311-0.411-20.094,3.33
	c-5.705,3.69-9.35,10.183-7.83,17.039c0.797,3.594,2.814,6.848,5.375,9.466c2.66,2.721,6.635,4.175,9.104,7.004
	c3.109,3.564,1.672,9.9,1.021,14.185c-0.785,5.167-1.809,10.408-1.473,15.656c0.521,8.136,2.831,18.011,7.27,25.586
	c-0.258,0.063-0.517,0.118-0.774,0.182c-10.765,2.683-21.705,6.214-31.819,11.074c0.873-20.104-1.595-40.495-3.092-60.487
	c-1.634-21.832-2.911-43.697-4.933-65.497c-0.89-9.581-0.891-19.004-1.11-28.596C20.412,91.845,20.029,88.349,20.299,84.884z
	 M95.689,477.273c-8.985,1.936-18.66,0.389-27.804,1.012c-5.304,0.361-20.522,3.072-23.118-2.878
	c-2.358-5.409,0.385-12.989-0.702-19.087c5.219-0.256,10.433-0.558,15.668-0.422c13.396,0.348,26.784-0.114,40.175-0.556
	c-0.043,0.321-0.064,0.654-0.037,1.008C100.415,463.383,105.93,475.067,95.689,477.273z M467.232,475.408
	c-2.596,5.95-17.815,3.239-23.119,2.878c-9.144-0.624-18.818,0.923-27.804-1.012c-10.239-2.206-4.726-13.89-4.181-20.922
	c0.027-0.354,0.006-0.687-0.037-1.008c13.391,0.441,26.778,0.903,40.174,0.556c5.236-0.136,10.449,0.166,15.668,0.422
	C466.848,462.418,469.59,469.999,467.232,475.408z M496.035,379.263c-0.296,11.537-2.002,23.063-1.986,34.6
	c0.007,6.561,0.826,13.118,0.298,19.679c-0.55,6.838-2.368,10.457-9.435,11.167c-7.711,0.775-15.585-0.177-23.295-0.545
	c-9.301-0.443-18.637,0.157-27.949-0.033c-22.701-0.464-45.278-1.187-67.992-0.971c-8.012,0.076-16.039-0.705-24.02-0.634
	c-8.402,0.075-16.805,0.439-25.209,0.404c-17.991-0.077-36.213-0.69-54.055-1.024c-15.778-0.295-31.563-0.286-47.344-0.122
	c-0.186-0.033-0.358-0.082-0.556-0.099c-22.644-1.909-45.464,1.689-68.17,1.475c-22.714-0.216-45.291,0.507-67.991,0.971
	c-9.313,0.19-18.648-0.41-27.949,0.033c-7.71,0.368-15.584,1.32-23.297,0.545c-7.064-0.709-8.883-4.328-9.433-11.167
	c-0.528-6.561,0.29-13.119,0.299-19.679c0.015-11.537-1.692-23.063-1.987-34.6c-0.147-5.771,0.576-11.883-0.069-17.673
	c8.515,5.224,19.79,7.469,28.861,6.36c10.139-1.24,16.765-7.832,22.325-15.492c5.649,8.346,14.262,14.257,25.063,14.256
	c6.214,0,11.804-2.242,16.689-5.973c3.598-2.747,6.785-6.364,10.629-8.852c6.21,9.567,13.665,18.084,26.461,17.402
	c10.784-0.574,18.509-7.497,25.21-15.202c6.992,9.52,21.469,14.531,32.217,15.449c13.233,1.131,23.303-5.502,30.125-15.341
	c0.946,2.068,2.21,3.957,3.613,5.451c4.934,5.252,12.141,8.206,19.266,8.647c9.703,0.601,18.883-4.355,23.684-12.04
	c6.765,8.688,16.322,14.333,28.609,13.283c10.748-0.918,25.224-5.93,32.217-15.449c6.7,7.705,14.425,14.628,25.209,15.202
	c12.797,0.682,20.252-7.835,26.462-17.402c3.843,2.488,7.03,6.104,10.628,8.852c4.887,3.731,10.477,5.973,16.689,5.973
	c10.803,0,19.414-5.91,25.064-14.256c5.561,7.66,12.187,14.251,22.325,15.492c9.07,1.109,20.346-1.136,28.86-6.36
	C495.459,367.38,496.182,373.492,496.035,379.263z M497.533,343.823c-3.881,10.018-18.104,14.117-27.994,13.362
	c-10.197-0.778-15.441-10.527-20.464-18.192c-2.69-4.108-8.417-3.169-10.048,1.313c-3.6,9.901-14.111,19.274-25.213,14.36
	c-8.219-3.638-13.208-11.777-21.834-15.16c-2.258-0.885-5.021,0.63-6.186,2.518c-4.961,8.038-10.244,18.097-21.416,15.924
	c-9.26-1.802-15.555-11.491-21.087-18.303c-3.433-4.228-8.981-0.196-9.52,3.943c-1.271,9.772-17.823,14.56-25.936,15.141
	c-11.952,0.855-20.024-7.408-24.274-17.835c-0.139-0.337-0.302-0.643-0.479-0.931c-0.087-0.452-0.183-0.906-0.298-1.363
	c-1.512-5.999-9.324-3.963-9.986,1.352c-0.019,0.154-0.035,0.307-0.053,0.461c-0.211,0.584-0.289,1.237-0.201,1.949
	c-0.424,4.498-0.773,8.828-4.651,12.028c-3.313,2.734-7.811,3.508-11.991,3.116c-4.309-0.404-8.46-2.053-11.58-5.088
	c-2.834-2.756-3.739-6.09-4.965-9.52c1.376-5.873-8.398-8.188-10.92-2.005c-4.25,10.427-12.323,18.69-24.275,17.835
	c-8.112-0.581-24.664-5.368-25.936-15.141c-0.538-4.139-6.086-8.17-9.519-3.943c-5.532,6.812-11.828,16.501-21.088,18.303
	c-11.171,2.173-16.454-7.886-21.415-15.924c-1.164-1.887-3.928-3.403-6.186-2.518c-8.626,3.383-13.615,11.522-21.835,15.16
	c-11.102,4.914-21.613-4.459-25.213-14.36c-1.63-4.482-7.356-5.421-10.048-1.313c-5.022,7.665-10.267,17.414-20.463,18.192
	c-9.891,0.755-24.113-3.344-27.994-13.362c-3.545-9.146-1.674-21.597-1.57-31.249c0.118-10.914-2.148-22.493,1.217-33.108
	c0.19-0.602,0.416-1.181,0.653-1.752c58.633-24.031,121.193-9.301,182.033-3.525c68.85,6.536,136.63-11.348,205.321-11.635
	c16.146-0.068,32.186,1.554,48.309,1.983c0.665,0.018,1.329,0.033,1.994,0.048c7.103,0.157,14.242,0.23,21.273,1.354
	c3.496,0.559,6.965,1.38,10.275,2.647c0.755,0.289,1.502,0.683,2.28,0.855c0.88,0.195,1.739,0.379,2.591,0.688
	c1.673,0.608,3.246,1.488,4.641,2.592c0.961,0.76,2.201,1.751,2.802,2.84c0.659,1.195,1.187,2.597,1.601,3.903
	c3.364,10.615,1.098,22.194,1.216,33.108C499.207,322.226,501.078,334.677,497.533,343.823z"/>
<g>
</g>
<g>
</g>
<g>
</g>
<g>
</g>
<g>
</g>
<g>
</g>
<g>
</g>
<g>
</g>
<g>
</g>
<g>
</g>
<g>
</g>
<g>
</g>
<g>
</g>
<g>
</g>
<g>
</g>
</svg>
