<svg height="511pt" viewBox="1 1 511 511.99935" width="511pt" xmlns="http://www.w3.org/2000/svg"><path d="m502.5 392v41h-96v-21c0-11.050781 8.949219-20 20-20zm0 0" fill="#ffca80"/><path d="m436.5 100v15c0 24.851562-20.152344 45-45 45-24.851562 0-45-20.148438-45-45 0 24.851562-20.152344 45-45 45-24.851562 0-45-20.148438-45-45 0 24.851562-20.152344 45-45 45-24.851562 0-45-20.148438-45-45 0 24.851562-20.152344 45-45 45-24.851562 0-45-20.148438-45-45v-15l150-60c0-16.570312 13.429688-30 30-30s30 13.429688 30 30zm0 0" fill="#ff712f"/><path d="m356.5 322c11.050781 0 20 8.949219 20 20s-8.949219 20-20 20c-11.199219 0-187.976562 0-200 0-11.050781 0-20-8.949219-20-20s8.949219-20 20-20zm0 0" fill="#00d7df"/><path d="m106.5 412v21h-96v-41h76c11.050781 0 20 8.949219 20 20zm0 0" fill="#ffca80"/><path d="m10.5 512c5.523438 0 10-4.476562 10-10v-59h76v59c0 5.523438 4.476562 10 10 10s10-4.476562 10-10v-90c0-16.542969-13.457031-30-30-30h-66v-110c0-5.523438-4.476562-10-10-10s-10 4.476562-10 10v230c0 5.523438 4.476562 10 10 10zm86-100v11h-76v-21h66c5.511719 0 10 4.484375 10 10zm0 0"/><path d="m502.5 512c5.523438 0 10-4.476562 10-10 0-9.925781 0-219.714844 0-230 0-5.523438-4.476562-10-10-10s-10 4.476562-10 10v110h-66c-16.542969 0-30 13.457031-30 30v90c0 5.523438 4.476562 10 10 10s10-4.476562 10-10v-59h76v59c0 5.523438 4.476562 10 10 10zm-86-89v-11c0-5.515625 4.484375-10 10-10h66v21zm0 0"/><path d="m72.785156 90.714844c-3.796875 1.519531-6.285156 5.195312-6.285156 9.285156v15c0 30.328125 24.671875 55 55 55 18.582031 0 35.039062-9.261719 45-23.410156 9.960938 14.148437 26.417969 23.410156 45 23.410156 13.292969 0 25.480469-4.757812 35-12.632812v154.632812h-90c-16.542969 0-30 13.457031-30 30s13.457031 30 30 30h6.566406l77.144532 60-79.851563 62.105469c-4.359375 3.390625-5.144531 9.671875-1.753906 14.03125 3.382812 4.347656 9.664062 5.15625 14.035156 1.753906l83.859375-65.222656 83.859375 65.222656c4.386719 3.414063 10.664063 2.578125 14.035156-1.753906 3.390625-4.359375 2.605469-10.640625-1.753906-14.03125l-79.851563-62.105469 77.140626-60h6.570312c16.539062 0 30-13.457031 30-30s-13.460938-30-30-30h-90v-154.632812c9.515625 7.875 21.707031 12.632812 35 12.632812 18.578125 0 35.035156-9.261719 45-23.410156 9.960938 14.148437 26.417969 23.410156 45 23.410156 30.324219 0 55-24.671875 55-55v-15c0-4.089844-2.488281-7.765625-6.289062-9.285156l-144.328126-57.730469c-3.328124-18.722656-19.722656-32.984375-39.382812-32.984375-19.664062 0-36.058594 14.261719-39.382812 32.984375zm293.714844 251.285156c0 5.511719-4.488281 10-10 10h-55c-5.523438 0-10 4.476562-10 10s4.476562 10 10 10h15.855469l-60.855469 47.332031-60.855469-47.332031h15.855469c5.523438 0 10-4.476562 10-10s-4.476562-10-10-10h-55c-5.515625 0-10-4.488281-10-10 0-5.515625 4.484375-10 10-10h200c5.511719 0 10 4.484375 10 10zm-136.289062-292.714844c3.796874-1.519531 6.289062-5.195312 6.289062-9.285156 0-11.027344 8.96875-20 20-20 11.027344 0 20 8.972656 20 20 0 4.089844 2.488281 7.765625 6.285156 9.285156l143.710938 57.484375v8.230469c0 19.296875-15.699219 35-35 35-19.296875 0-35-15.703125-35-35 0-5.523438-4.476563-10-10-10-5.519532 0-10 4.476562-10 10 0 19.296875-15.699219 35-34.996094 35-19.300781 0-35-15.703125-35-35 0-5.523438-4.480469-10-10-10-5.523438 0-10 4.476562-10 10 0 19.296875-15.703125 35-35 35-19.300781 0-35-15.703125-35-35 0-5.523438-4.480469-10-10-10-5.523438 0-10 4.476562-10 10 0 19.296875-15.703125 35-35 35-19.300781 0-35-15.703125-35-35v-8.230469zm0 0"/><path d="m266.5 362c0 5.523438-4.476562 10-10 10s-10-4.476562-10-10 4.476562-10 10-10 10 4.476562 10 10zm0 0"/></svg>