<?xml version="1.0" encoding="iso-8859-1"?>
<!-- Generator: Adobe Illustrator 19.0.0, SVG Export Plug-In . SVG Version: 6.00 Build 0)  -->
<svg version="1.1" id="Layer_1" xmlns="http://www.w3.org/2000/svg" xmlns:xlink="http://www.w3.org/1999/xlink" x="0px" y="0px"
	 viewBox="0 0 512 512" style="enable-background:new 0 0 512 512;" xml:space="preserve">
<rect y="233.6" style="fill:#F2F2F2;" width="512" height="235.733"/>
<rect y="202.667" style="fill:#FFD15C;" width="512" height="30.933"/>
<path style="fill:#40596B;" d="M451.2,0c-24.533,0-44.8,20.267-44.8,44.8V80H286.933V44.8c0-7.467,6.4-13.867,13.867-13.867
	c7.467,0,13.867,6.4,13.867,13.867c0,8.533,6.4,14.933,14.933,14.933s14.933-6.4,14.933-14.933c0-24.533-20.267-44.8-44.8-44.8
	C275.2,0,256,20.267,256,44.8v296.533c0,8.533,6.4,14.933,14.933,14.933s14.933-6.4,14.933-14.933V294.4h119.467v46.933
	c0,8.533,6.4,14.933,14.933,14.933c8.533,0,14.933-6.4,14.933-14.933V44.8c0-7.467,6.4-13.867,13.867-13.867
	s13.867,6.4,13.867,13.867c0,8.533,6.4,14.933,14.933,14.933c8.533,0,14.933-6.4,14.933-14.933C494.933,20.267,475.733,0,451.2,0z
	 M286.933,171.733H406.4v30.933H286.933V171.733z M406.4,109.867V140.8H286.933v-30.933L406.4,109.867L406.4,109.867z
	 M286.933,264.533V233.6H406.4v30.933H286.933z"/>
<path style="fill:#29B9E5;" d="M460.8,308.267c-9.6,18.133-28.8,29.867-51.2,29.867c-22.4,0-41.6-11.733-51.2-29.867
	c-9.6,18.133-28.8,29.867-51.2,29.867S265.6,326.4,256,308.267c-9.6,18.133-28.8,29.867-51.2,29.867s-41.6-11.733-51.2-29.867
	c-9.6,18.133-28.8,29.867-51.2,29.867S60.8,326.4,51.2,308.267C41.6,326.4,22.4,338.133,0,338.133v118.4h512v-118.4
	C489.6,338.133,470.4,325.333,460.8,308.267z"/>
<path style="fill:#54C0EB;" d="M460.8,357.333c-9.6,18.133-28.8,29.867-51.2,29.867c-22.4,0-41.6-11.733-51.2-29.867
	c-9.6,18.133-28.8,29.867-51.2,29.867s-41.6-11.733-51.2-29.867c-9.6,18.133-28.8,29.867-51.2,29.867s-41.6-11.733-51.2-29.867
	c-9.6,18.133-28.8,29.867-51.2,29.867s-41.6-11.733-51.2-29.867C41.6,375.467,22.4,387.2,0,387.2v118.4h512V387.2
	C489.6,387.2,470.4,375.467,460.8,357.333z"/>
<path style="fill:#84DBFF;" d="M460.8,406.4c-9.6,18.133-28.8,29.867-51.2,29.867c-22.4,0-41.6-11.733-51.2-29.867
	c-9.6,18.133-28.8,29.867-51.2,29.867S265.6,424.533,256,406.4c-9.6,18.133-28.8,29.867-51.2,29.867s-41.6-11.733-51.2-29.867
	c-9.6,18.133-28.8,29.867-51.2,29.867S60.8,424.533,51.2,406.4c-9.6,18.133-28.8,29.867-51.2,29.867V512h512v-75.733
	C489.6,436.267,470.4,424.533,460.8,406.4z"/>
<g>
</g>
<g>
</g>
<g>
</g>
<g>
</g>
<g>
</g>
<g>
</g>
<g>
</g>
<g>
</g>
<g>
</g>
<g>
</g>
<g>
</g>
<g>
</g>
<g>
</g>
<g>
</g>
<g>
</g>
</svg>
