<svg height="480pt" viewBox="0 0 480 480" width="480pt" xmlns="http://www.w3.org/2000/svg"><path d="m0 352h480v48h-480zm0 0" fill="#98ca69"/><path d="m458.792969 370.175781c-2.671875-10.703125-12.257813-18.175781-23.289063-18.175781h-71.007812c-11.03125 0-20.609375 7.472656-23.28125 18.175781l-4.925782 19.71875-2.761718 10.105469h132.945312l-2.710937-9.945312zm0 0" fill="#75aa40"/><path d="m0 392h480v8h-480zm0 0" fill="#75aa40"/><path d="m448 48-32 32v32h-40v-32l-32-32-32 32v32h-40v-32l-32-32-32 32v32h-40v-32l-32-32-32 32v32h-40v-32l-32-32-32 32v272h64v-48h40v48h64v-48h40v48h64v-48h40v48h64v-48h40v48h64v-272zm-344 192h-40v-64h40zm104 0h-40v-64h40zm104 0h-40v-64h40zm104 0h-40v-64h40zm0 0" fill="#edeff1"/><path d="m376 112h8v64h-8zm0 0" fill="#d3d3d3"/><path d="m272 112h8v64h-8zm0 0" fill="#d3d3d3"/><path d="m168 112h8v64h-8zm0 0" fill="#d3d3d3"/><path d="m64 112h8v64h-8zm0 0" fill="#d3d3d3"/><path d="m424 344v-87.144531c0-7.230469-3.105469-13.855469-8-18.457031v113.601562h16c-4.414062 0-8-3.59375-8-8zm0 0" fill="#d3d3d3"/><path d="m95.152344 28.425781 8.847656-4.425781-8.847656-4.425781c-4.648438-2.316407-8.410156-6.085938-10.738282-10.734375l-4.414062-8.839844-4.425781 8.847656c-2.316407 4.648438-6.085938 8.410156-10.734375 10.738282l-8.839844 4.414062 8.847656 4.425781c4.648438 2.316407 8.410156 6.085938 10.738282 10.734375l4.414062 8.839844 4.425781-8.847656c2.316407-4.640625 6.085938-8.410156 10.726563-10.726563zm0 0" fill="#80d6fb"/><path d="m306.105469 42.945312 5.894531-2.945312-5.894531-2.953125c-3.097657-1.550781-5.609375-4.054687-7.152344-7.152344l-2.953125-5.894531-2.953125 5.894531c-1.550781 3.097657-4.054687 5.609375-7.152344 7.152344l-5.894531 2.953125 5.894531 2.953125c3.097657 1.550781 5.609375 4.054687 7.152344 7.152344l2.953125 5.894531 2.953125-5.894531c1.542969-3.097657 4.054687-5.609375 7.152344-7.160157zm0 0" fill="#80d6fb"/><path d="m437.046875 17.472656 2.953125-1.472656-2.953125-1.472656c-1.550781-.773438-2.800781-2.03125-3.574219-3.574219l-1.472656-2.953125-1.472656 2.953125c-.773438 1.550781-2.03125 2.800781-3.574219 3.574219l-2.953125 1.472656 2.953125 1.472656c1.550781.773438 2.800781 2.03125 3.574219 3.574219l1.472656 2.953125 1.472656-2.953125c.773438-1.542969 2.03125-2.800781 3.574219-3.574219zm0 0" fill="#80d6fb"/><g fill="#d3d3d3"><path d="m40 144c0 4.417969-3.582031 8-8 8s-8-3.582031-8-8 3.582031-8 8-8 8 3.582031 8 8zm0 0"/><path d="m144 144c0 4.417969-3.582031 8-8 8s-8-3.582031-8-8 3.582031-8 8-8 8 3.582031 8 8zm0 0"/><path d="m248 144c0 4.417969-3.582031 8-8 8s-8-3.582031-8-8 3.582031-8 8-8 8 3.582031 8 8zm0 0"/><path d="m352 144c0 4.417969-3.582031 8-8 8s-8-3.582031-8-8 3.582031-8 8-8 8 3.582031 8 8zm0 0"/><path d="m456 144c0 4.417969-3.582031 8-8 8s-8-3.582031-8-8 3.582031-8 8-8 8 3.582031 8 8zm0 0"/><path d="m376 240h8v64h-8zm0 0"/><path d="m272 240h8v64h-8zm0 0"/><path d="m168 240h8v64h-8zm0 0"/><path d="m64 240h8v64h-8zm0 0"/><path d="m40 272c0 4.417969-3.582031 8-8 8s-8-3.582031-8-8 3.582031-8 8-8 8 3.582031 8 8zm0 0"/><path d="m144 272c0 4.417969-3.582031 8-8 8s-8-3.582031-8-8 3.582031-8 8-8 8 3.582031 8 8zm0 0"/><path d="m248 272c0 4.417969-3.582031 8-8 8s-8-3.582031-8-8 3.582031-8 8-8 8 3.582031 8 8zm0 0"/><path d="m352 272c0 4.417969-3.582031 8-8 8s-8-3.582031-8-8 3.582031-8 8-8 8 3.582031 8 8zm0 0"/></g><path d="m184 352c0-8.839844-7.160156-16-16-16 0-11.0625-7.527344-20.28125-17.710938-23.0625-2.617187-5.273438-8-8.9375-14.289062-8.9375-.375 0-.726562.089844-1.097656.113281-3.527344-13.839843-15.964844-24.113281-30.902344-24.113281-11.984375 0-22.3125 6.671875-27.792969 16.425781-1.390625-.1875-2.765625-.425781-4.207031-.425781-17.671875 0-32 14.328125-32 32-13.257812 0-24 10.742188-24 24zm0 0" fill="#98ca69"/><path d="m141.273438 324.375c-12.226563 3.234375-21.273438 14.394531-21.273438 27.625h64c0-8.839844-7.160156-16-16-16 0-11.0625-7.527344-20.28125-17.710938-23.0625-.578124-1.167969-1.335937-2.210938-2.160156-3.203125-3.304687 4.242187-5.746094 9.1875-6.855468 14.640625zm0 0" fill="#75aa40"/><path d="m272 352c0-7.574219-6.144531-13.710938-13.710938-13.710938 0-9.480468-6.449218-17.386718-15.175781-19.769531-2.242187-4.519531-6.855469-7.664062-12.25-7.664062-.320312 0-.625.074219-.941406.097656-3.027344-11.855469-13.691406-20.664063-26.488281-20.664063-10.273438 0-19.121094 5.710938-23.824219 14.078126-1.195313-.160157-2.378906-.367188-3.609375-.367188-15.152344 0-27.433594 12.28125-27.433594 27.433594-11.359375 0-20.566406 9.207031-20.566406 20.566406zm0 0" fill="#98ca69"/><path d="m480 480-24-88h-112l-24 88zm0 0" fill="#ffe352"/><path d="m392 392h16v32h-16zm0 0" fill="#ffb236"/><path d="m424 392h16v24h-16zm0 0" fill="#ffb236"/><path d="m360 392h16v24h-16zm0 0" fill="#ffb236"/><path d="m456 392-4.96875-19.878906c-1.785156-7.121094-8.183594-12.121094-15.527344-12.121094h-3.503906c-8.839844 0-16-7.160156-16-16v-87.144531c0-7.96875-5.449219-15.359375-13.3125-16.640625-10.023438-1.621094-18.6875 6.066406-18.6875 15.785156v88c0 8.839844-7.160156 16-16 16h-3.503906c-7.34375 0-13.742188 5-15.519532 12.121094l-4.976562 19.878906zm-56-144c4.414062 0 8 3.585938 8 8s-3.585938 8-8 8-8-3.585938-8-8 3.585938-8 8-8zm0 0" fill="#6e83b7"/></svg>