<svg id="line" height="512" viewBox="0 0 64 64" width="512" xmlns="http://www.w3.org/2000/svg"><path d="m60 15h-18a3 3 0 0 0 -3 3v44a1 1 0 0 0 1 1h22a1 1 0 0 0 1-1v-44a3 3 0 0 0 -3-3zm-1 41h-16a1 1 0 0 1 0-2h16a1 1 0 0 1 0 2zm0-8h-16a1 1 0 0 1 0-2h16a1 1 0 0 1 0 2zm0-8h-16a1 1 0 0 1 0-2h16a1 1 0 0 1 0 2zm0-8h-16a1 1 0 0 1 0-2h16a1 1 0 0 1 0 2zm0-8h-16a1 1 0 0 1 0-2h16a1 1 0 0 1 0 2z" fill="#c4a2fc"/><path d="m34 24h-18a3 3 0 0 0 -3 3v35a1 1 0 0 0 1 1h22a1 1 0 0 0 1-1v-35a3 3 0 0 0 -3-3zm-16 5h5a1 1 0 0 1 0 2h-5a1 1 0 0 1 0-2zm0 5h5a1 1 0 0 1 0 2h-5a1 1 0 0 1 0-2zm0 5h5a1 1 0 0 1 0 2h-5a1 1 0 0 1 0-2zm0 7a1 1 0 0 1 0-2h5a1 1 0 0 1 0 2zm12 15h-10v-11a1 1 0 0 1 1-1h8a1 1 0 0 1 1 1zm2-15h-5a1 1 0 0 1 0-2h5a1 1 0 0 1 0 2zm0-5h-5a1 1 0 0 1 0-2h5a1 1 0 0 1 0 2zm0-5h-5a1 1 0 0 1 0-2h5a1 1 0 0 1 0 2zm0-5h-5a1 1 0 0 1 0-2h5a1 1 0 0 1 0 2z" fill="#c4a2fc"/><g fill="#151a6a"><path d="m20 1a19.021 19.021 0 0 0 -19 19c0 14.688 17.6 30.106 18.345 30.756a1 1 0 0 0 1.31 0c.745-.65 18.345-16.068 18.345-30.756a19.021 19.021 0 0 0 -19-19zm0 47.652c-3.2-2.952-17-16.403-17-28.652a17 17 0 0 1 34 0c0 12.239-13.8 25.7-17 28.652z"/><path d="m20 12a8 8 0 1 0 8 8 8.009 8.009 0 0 0 -8-8zm0 14a6 6 0 1 1 6-6 6.006 6.006 0 0 1 -6 6z"/><path d="m21 7a1 1 0 0 0 -1-1 14.015 14.015 0 0 0 -14 14 1 1 0 0 0 2 0 12.013 12.013 0 0 1 12-12 1 1 0 0 0 1-1z"/></g></svg>